<?xml version="1.0" encoding="utf-8"?>
<!-- Generator: Adobe Illustrator 17.0.0, SVG Export Plug-In . SVG Version: 6.00 Build 0)  -->
<!DOCTYPE svg PUBLIC "-//W3C//DTD SVG 1.1//EN" "http://www.w3.org/Graphics/SVG/1.1/DTD/svg11.dtd">
<svg version="1.1" id="Layer_1" xmlns="http://www.w3.org/2000/svg" xmlns:xlink="http://www.w3.org/1999/xlink" x="0px" y="0px"
	 width="980px" height="453.757px" viewBox="0 0 980 453.757" enable-background="new 0 0 980 453.757" xml:space="preserve">
<path fill="#F26822" d="M466.831,16.652c-0.975,0.978-0.973,2.561,0.005,3.536L569.882,123.19c0.978,0.975,2.561,0.973,3.536-0.005
	l0,0c0.975-0.978,0.973-2.561-0.005-3.536L470.366,16.647C469.389,15.672,467.806,15.674,466.831,16.652L466.831,16.652z"/>
<path fill="#F26822" d="M571.787,442.852c-1.381-0.002-2.499-1.123-2.497-2.503l0.031-319.197c0.002-1.381,1.123-2.498,2.503-2.497
	l0,0c1.381,0.002,2.498,1.123,2.497,2.503l-0.031,319.197C574.288,441.736,573.168,442.853,571.787,442.852L571.787,442.852z"/>
<text transform="matrix(1 0 0 1 245.1577 24.3175)" fill="#A4B3C1" font-family="'Gibson Regular','Helvetica neue',Helvetica,Arial,sans-serif" font-weight="600" font-size="12">CUSTOMER SERVICE EXECUTIVE</text>
<circle fill="#FFFFFF" stroke="#A4B3C1" stroke-width="2" stroke-miterlimit="10" cx="571.774" cy="380.266" r="6.705"/>
<circle fill="#FFFFFF" stroke="#A4B3C1" stroke-width="2" stroke-miterlimit="10" cx="512.784" cy="64.168" r="6.705"/>
<circle fill="#FFFFFF" stroke="#A4B3C1" stroke-width="2" stroke-miterlimit="10" cx="572.3" cy="137.381" r="6.705"/>
<text transform="matrix(1 0 0 1 586.5743 384.2663)" fill="#13244B" font-family="'Gibson Regular','Helvetica neue',Helvetica,Arial,sans-serif" font-weight="600" font-size="11">GROUP ASSESSMENT</text>
<text transform="matrix(1 0 0 1 525.5334 66.0531)" fill="#13244B" font-family="'Gibson Regular','Helvetica neue',Helvetica,Arial,sans-serif" font-weight="600" font-size="11">LANGUAGE TEST</text>
<text transform="matrix(1 0 0 1 585.0491 139.0861)" fill="#13244B" font-family="'Gibson Regular','Helvetica neue',Helvetica,Arial,sans-serif" font-weight="600" font-size="11">SITUATIONAL TEST</text>
<text transform="matrix(1 0 0 1 192.5241 250.7467)" fill="#A4B3C1" font-family="'Gibson Regular','Helvetica neue',Helvetica,Arial,sans-serif" font-weight="600" font-size="12">DEVELOPER</text>
<text transform="matrix(1 0 0 1 150.0821 282.7663)" fill="#A4B3C1" font-family="'Gibson Regular','Helvetica neue',Helvetica,Arial,sans-serif" font-weight="600" font-size="12">OTHER TECH ROLES</text>
<text transform="matrix(1 0 0 1 157.0821 350.8002)" fill="#A4B3C1" font-family="'Gibson Regular','Helvetica neue',Helvetica,Arial,sans-serif" font-weight="600" font-size="12">PRODUCT OWNER</text>
<text transform="matrix(1 0 0 1 28.6475 367.692)" fill="#A4B3C1" font-family="'Gibson Regular','Helvetica neue',Helvetica,Arial,sans-serif" font-weight="600" font-size="12">BUSINESS DEVELOPMENT / MARKETING /</text>
<text transform="matrix(1 0 0 1 87.8596 384.8202)" fill="#A4B3C1" font-family="'Gibson Regular','Helvetica neue',Helvetica,Arial,sans-serif" font-weight="600" font-size="12">CONTENT / FINANCE / PEOPLE</text>
<text transform="matrix(1 0 0 1 55.0547 267.2748)" fill="#A4B3C1" font-family="'Gibson Regular','Helvetica neue',Helvetica,Arial,sans-serif" font-weight="600" font-size="12">FRONT-END DEVELOPER / DESIGNER</text>
<path fill="#E42C26" d="M436.681,246.938c-0.002,1.381-1.123,2.498-2.503,2.497l-145.699-0.031
	c-1.381-0.002-2.498-1.123-2.497-2.503l0,0c0.002-1.381,1.123-2.498,2.503-2.497l145.699,0.031
	C435.565,244.436,436.682,245.557,436.681,246.938L436.681,246.938z"/>
<path fill="#E42C26" d="M657.331,192.938c-0.002,1.381-1.123,2.498-2.503,2.497l-165.699-0.031
	c-1.381-0.002-2.499-1.123-2.497-2.503l0,0c0.002-1.381,1.123-2.498,2.503-2.497l165.699,0.031
	C656.215,190.436,657.333,191.557,657.331,192.938L657.331,192.938z"/>
<path fill="#E42C26" d="M787.331,246.938c-0.002,1.381-1.123,2.498-2.503,2.497l-75.699-0.031c-1.381-0.002-2.498-1.123-2.497-2.503
	l0,0c0.002-1.381,1.123-2.498,2.503-2.497l75.699,0.031C786.215,244.436,787.332,245.557,787.331,246.938L787.331,246.938z"/>
<path fill="#1F9DD9" d="M926.663,224.938c-0.002,1.381-1.123,2.498-2.503,2.497l-75.699-0.031c-1.381-0.002-2.498-1.123-2.497-2.503
	l0,0c0.002-1.381,1.123-2.498,2.503-2.497l75.699,0.031C925.547,222.436,926.665,223.557,926.663,224.938L926.663,224.938z"/>
<path fill="#FDBA12" d="M925.663,209.304c-0.002,1.381-1.123,2.498-2.503,2.497l-77.699-0.031c-1.381-0.002-2.498-1.123-2.497-2.503
	l0,0c0.002-1.381,1.123-2.498,2.503-2.497l77.699,0.031C924.547,206.803,925.665,207.924,925.663,209.304L925.663,209.304z"/>
<path fill="#E42C26" d="M926.663,192.453c-0.002,1.381-1.123,2.498-2.503,2.497l-82.699-0.031c-1.381-0.002-2.498-1.123-2.497-2.503
	l0,0c0.002-1.381,1.123-2.498,2.503-2.497l82.699,0.031C925.547,189.952,926.665,191.072,926.663,192.453L926.663,192.453z"/>
<path fill="#E42C26" d="M841.86,191.401c0.975,0.978,0.973,2.561-0.005,3.536l-53.549,53.505c-0.978,0.975-2.561,0.973-3.536-0.005
	l0,0c-0.975-0.978-0.973-2.561,0.005-3.536l53.549-53.505C839.302,190.421,840.885,190.423,841.86,191.401L841.86,191.401z"/>
<path fill="#FDBA12" d="M846.86,207.504c0.975,0.978,0.973,2.561-0.005,3.536l-53.549,53.505c-0.978,0.975-2.561,0.973-3.536-0.005
	l0,0c-0.975-0.978-0.973-2.561,0.005-3.536l53.549-53.505C844.302,206.525,845.885,206.527,846.86,207.504L846.86,207.504z"/>
<path fill="#1F9DD9" d="M849.86,223.15c0.975,0.978,0.973,2.561-0.005,3.536l-53.549,53.505c-0.978,0.975-2.561,0.973-3.536-0.005
	l0,0c-0.975-0.978-0.973-2.561,0.005-3.536l53.549-53.505C847.302,222.17,848.885,222.172,849.86,223.15L849.86,223.15z"/>
<path fill="#E42C26" d="M490.404,191.484c0.975,0.978,0.973,2.561-0.005,3.536l-53.549,53.505c-0.978,0.975-2.561,0.973-3.536-0.005
	l0,0c-0.975-0.978-0.973-2.561,0.005-3.536l53.549-53.505C487.846,190.505,489.429,190.507,490.404,191.484L490.404,191.484z"/>
<path fill="#E42C26" d="M653.392,191.484c-0.975,0.978-0.973,2.561,0.005,3.536l53.549,53.505c0.978,0.975,2.561,0.973,3.536-0.005
	l0,0c0.975-0.978,0.973-2.561-0.005-3.536l-53.549-53.505C655.95,190.505,654.367,190.507,653.392,191.484L653.392,191.484z"/>
<path fill="#233C7B" d="M436.681,347.304c-0.002,1.381-1.123,2.499-2.503,2.497l-145.699-0.031
	c-1.381-0.002-2.498-1.123-2.497-2.503l0,0c0.002-1.381,1.123-2.499,2.503-2.497l145.699,0.031
	C435.565,344.802,436.682,345.923,436.681,347.304L436.681,347.304z"/>
<path fill="#233C7B" d="M646.209,293.304c-0.002,1.381-1.123,2.499-2.503,2.497l-154.699-0.031
	c-1.381-0.002-2.498-1.123-2.497-2.503l0,0c0.002-1.381,1.123-2.499,2.503-2.497l154.699,0.031
	C645.093,290.802,646.211,291.923,646.209,293.304L646.209,293.304z"/>
<path fill="#233C7B" d="M490.404,291.85c0.975,0.978,0.973,2.561-0.005,3.536l-53.549,53.505c-0.978,0.975-2.561,0.973-3.536-0.005
	l0,0c-0.975-0.978-0.973-2.561,0.005-3.536l53.549-53.505C487.846,290.871,489.429,290.873,490.404,291.85L490.404,291.85z"/>
<path fill="#55AF47" d="M443.681,361.788c-0.002,1.381-1.123,2.498-2.503,2.497l-152.699-0.031
	c-1.381-0.002-2.498-1.123-2.497-2.503l0,0c0.002-1.381,1.123-2.498,2.503-2.497l152.699,0.031
	C442.565,359.286,443.682,360.407,443.681,361.788L443.681,361.788z"/>
<path fill="#233C7B" d="M921.964,347.304c-0.002,1.381-1.123,2.499-2.503,2.497l-221.699-0.031
	c-1.381-0.002-2.498-1.123-2.497-2.503l0,0c0.002-1.381,1.123-2.499,2.503-2.497l221.699,0.031
	C920.848,344.802,921.966,345.923,921.964,347.304L921.964,347.304z"/>
<path fill="#55AF47" d="M920.964,361.788c-0.002,1.381-1.123,2.498-2.503,2.497l-228.699-0.031
	c-1.381-0.002-2.498-1.123-2.497-2.503l0,0c0.002-1.381,1.123-2.498,2.503-2.497l228.699,0.031
	C919.848,359.286,920.966,360.407,920.964,361.788L920.964,361.788z"/>
<path fill="#55AF47" d="M638.209,308.788c-0.002,1.381-1.123,2.498-2.503,2.497l-141.699-0.031
	c-1.381-0.002-2.498-1.123-2.497-2.503l0,0c0.002-1.381,1.123-2.498,2.503-2.497l141.699,0.031
	C637.093,306.286,638.211,307.407,638.209,308.788L638.209,308.788z"/>
<path fill="#55AF47" d="M495.404,307.335c0.975,0.978,0.973,2.561-0.005,3.536l-51.549,51.505c-0.978,0.975-2.561,0.973-3.536-0.005
	l0,0c-0.975-0.978-0.973-2.561,0.005-3.536l51.549-51.505C492.846,306.355,494.429,306.357,495.404,307.335L495.404,307.335z"/>
<path fill="#233C7B" d="M642.392,291.85c-0.975,0.978-0.973,2.561,0.005,3.536l53.549,53.505c0.978,0.975,2.561,0.973,3.536-0.005
	l0,0c0.975-0.978,0.973-2.561-0.005-3.536l-53.549-53.505C644.95,290.871,643.367,290.873,642.392,291.85L642.392,291.85z"/>
<path fill="#55AF47" d="M635.392,307.335c-0.975,0.978-0.973,2.561,0.005,3.536l51.549,51.505c0.978,0.975,2.561,0.973,3.536-0.005
	l0,0c0.975-0.978,0.973-2.561-0.005-3.536l-51.549-51.505C637.95,306.355,636.367,306.357,635.392,307.335L635.392,307.335z"/>
<path fill="#1F9DD9" d="M796.376,278.957c-0.002,1.381-1.123,2.499-2.503,2.497l-505.395-0.031
	c-1.381-0.002-2.498-1.123-2.497-2.503l0,0c0.002-1.381,1.123-2.499,2.503-2.497l505.395,0.031
	C795.26,276.455,796.378,277.576,796.376,278.957L796.376,278.957z"/>
<path fill="#FDBA12" d="M793.376,263.466c-0.002,1.381-1.123,2.499-2.503,2.497l-502.395-0.031
	c-1.381-0.002-2.498-1.123-2.497-2.503l0,0c0.002-1.381,1.123-2.499,2.503-2.497l502.395,0.031
	C792.26,260.964,793.378,262.085,793.376,263.466L793.376,263.466z"/>
<circle fill="#FFFFFF" stroke="#A4B3C1" stroke-width="2" stroke-miterlimit="10" cx="523.144" cy="192.168" r="6.705"/>
<text transform="matrix(1 0 0 1 487.9359 174.1681)" fill="#13244B" font-family="'Gibson Regular','Helvetica neue',Helvetica,Arial,sans-serif" font-weight="600" font-size="11">HACKERRANK</text>
<text transform="matrix(1 0 0 1 589.5104 244.7426)" fill="#13244B" font-family="'Gibson Regular','Helvetica neue',Helvetica,Arial,sans-serif" font-weight="600" font-size="11">HACKERRANK</text>
<text transform="matrix(1 0 0 1 699.9381 208.1679)"><tspan x="0" y="0" fill="#13244B" font-family="'Gibson Regular','Helvetica neue',Helvetica,Arial,sans-serif" font-weight="600" font-size="11">TECHNICAL PHONE </tspan><tspan x="0" y="13.2" fill="#13244B" font-family="'Gibson Regular','Helvetica neue',Helvetica,Arial,sans-serif" font-weight="600" font-size="11">INTERVIEW</tspan></text>
<text transform="matrix(1 0 0 1 805.0985 158.0075)"><tspan x="0" y="0" fill="#13244B" font-family="'Gibson Regular','Helvetica neue',Helvetica,Arial,sans-serif" font-weight="600" font-size="11">FACE TO FACE</tspan><tspan x="0" y="13.2" fill="#13244B" font-family="'Gibson Regular','Helvetica neue',Helvetica,Arial,sans-serif" font-weight="600" font-size="11">INTERVIEW</tspan></text>
<text transform="matrix(1 0 0 1 913.0984 168.0075)" fill="#13244B" font-family="'Gibson Regular','Helvetica neue',Helvetica,Arial,sans-serif" font-weight="600" font-size="11">OFFER</text>
<text transform="matrix(1 0 0 1 809.0985 394.2663)"><tspan x="0" y="0" fill="#13244B" font-family="'Gibson Regular','Helvetica neue',Helvetica,Arial,sans-serif" font-weight="600" font-size="11">FACE TO FACE</tspan><tspan x="0" y="13.2" fill="#13244B" font-family="'Gibson Regular','Helvetica neue',Helvetica,Arial,sans-serif" font-weight="600" font-size="11">INTERVIEW</tspan></text>
<text transform="matrix(1 0 0 1 721.0985 394.2663)"><tspan x="0" y="0" fill="#13244B" font-family="'Gibson Regular','Helvetica neue',Helvetica,Arial,sans-serif" font-weight="600" font-size="11">BUSINESS </tspan><tspan x="0" y="13.2" fill="#13244B" font-family="'Gibson Regular','Helvetica neue',Helvetica,Arial,sans-serif" font-weight="600" font-size="11">PHONE</tspan><tspan x="0" y="26.4" fill="#13244B" font-family="'Gibson Regular','Helvetica neue',Helvetica,Arial,sans-serif" font-weight="600" font-size="11">INTERVIEW</tspan></text>
<text transform="matrix(1 0 0 1 915.0984 394.2663)" fill="#13244B" font-family="'Gibson Regular','Helvetica neue',Helvetica,Arial,sans-serif" font-weight="600" font-size="11">OFFER</text>
<text transform="matrix(1 0 0 1 593.0985 440.0919)" fill="#13244B" font-family="'Gibson Regular','Helvetica neue',Helvetica,Arial,sans-serif" font-weight="600" font-size="11">OFFER</text>
<text transform="matrix(1 0 0 1 491.0985 23.3175)" fill="#13244B" font-family="'Gibson Regular','Helvetica neue',Helvetica,Arial,sans-serif" font-weight="600" font-size="11">APPLICATION</text>
<text transform="matrix(1 0 0 1 293.0985 225.3175)" fill="#13244B" font-family="'Gibson Regular','Helvetica neue',Helvetica,Arial,sans-serif" font-weight="600" font-size="11">APPLICATION</text>
<text transform="matrix(1 0 0 1 293.0985 326.2841)" fill="#13244B" font-family="'Gibson Regular','Helvetica neue',Helvetica,Arial,sans-serif" font-weight="600" font-size="11">APPLICATION</text>
<circle fill="#FFFFFF" stroke="#A4B3C1" stroke-width="2" stroke-miterlimit="10" cx="623.144" cy="263.168" r="6.705"/>
<g>
	<path fill="#FFFFFF" d="M580.881,328.168c0,1.1-0.9,2-2,2h-13.799c-1.1,0-2-0.9-2-2v-147c0-1.1,0.9-2,2-2h13.799c1.1,0,2,0.9,2,2
		V328.168z"/>
	<path fill="none" stroke="#A4B3C1" stroke-width="2" stroke-miterlimit="10" d="M580.881,328.168c0,1.1-0.9,2-2,2h-13.799
		c-1.1,0-2-0.9-2-2v-147c0-1.1,0.9-2,2-2h13.799c1.1,0,2,0.9,2,2V328.168z"/>
</g>
<g>
	<path fill="#FFFFFF" d="M300.435,290.116c0,1.1-0.9,2-2,2h-10.662c-1.1,0-2-0.9-2-2v-53.113c0-1.1,0.9-2,2-2h10.662
		c1.1,0,2,0.9,2,2V290.116z"/>
	<path fill="none" stroke="#A4B3C1" stroke-width="2" stroke-miterlimit="10" d="M300.435,290.116c0,1.1-0.9,2-2,2h-10.662
		c-1.1,0-2-0.9-2-2v-53.113c0-1.1,0.9-2,2-2h10.662c1.1,0,2,0.9,2,2V290.116z"/>
</g>
<g>
	<path fill="#FFFFFF" d="M756.844,289.116c0,1.1-0.9,2-2,2h-10.662c-1.1,0-2-0.9-2-2v-53.113c0-1.1,0.9-2,2-2h10.662
		c1.1,0,2,0.9,2,2V289.116z"/>
	<path fill="none" stroke="#A4B3C1" stroke-width="2" stroke-miterlimit="10" d="M756.844,289.116c0,1.1-0.9,2-2,2h-10.662
		c-1.1,0-2-0.9-2-2v-53.113c0-1.1,0.9-2,2-2h10.662c1.1,0,2,0.9,2,2V289.116z"/>
</g>
<g>
	<path fill="#FFFFFF" d="M929.448,237.116c0,1.1-0.9,2-2,2h-10.662c-1.1,0-2-0.9-2-2v-53.113c0-1.1,0.9-2,2-2h10.662
		c1.1,0,2,0.9,2,2V237.116z"/>
	<path fill="none" stroke="#A4B3C1" stroke-width="2" stroke-miterlimit="10" d="M929.448,237.116c0,1.1-0.9,2-2,2h-10.662
		c-1.1,0-2-0.9-2-2v-53.113c0-1.1,0.9-2,2-2h10.662c1.1,0,2,0.9,2,2V237.116z"/>
</g>
<g>
	<path fill="#FFFFFF" d="M849.976,237.116c0,1.1-0.9,2-2,2h-10.662c-1.1,0-2-0.9-2-2v-53.113c0-1.1,0.9-2,2-2h10.662
		c1.1,0,2,0.9,2,2V237.116z"/>
	<path fill="none" stroke="#A4B3C1" stroke-width="2" stroke-miterlimit="10" d="M849.976,237.116c0,1.1-0.9,2-2,2h-10.662
		c-1.1,0-2-0.9-2-2v-53.113c0-1.1,0.9-2,2-2h10.662c1.1,0,2,0.9,2,2V237.116z"/>
</g>
<g>
	<path fill="#FFFFFF" d="M300.435,372.834c0,1.1-0.9,2-2,2h-10.662c-1.1,0-2-0.9-2-2v-36.22c0-1.1,0.9-2,2-2h10.662c1.1,0,2,0.9,2,2
		V372.834z"/>
	<path fill="none" stroke="#A4B3C1" stroke-width="2" stroke-miterlimit="10" d="M300.435,372.834c0,1.1-0.9,2-2,2h-10.662
		c-1.1,0-2-0.9-2-2v-36.22c0-1.1,0.9-2,2-2h10.662c1.1,0,2,0.9,2,2V372.834z"/>
</g>
<g>
	<path fill="#FFFFFF" d="M929.448,372.834c0,1.1-0.9,2-2,2h-10.662c-1.1,0-2-0.9-2-2v-36.22c0-1.1,0.9-2,2-2h10.662c1.1,0,2,0.9,2,2
		V372.834z"/>
	<path fill="none" stroke="#A4B3C1" stroke-width="2" stroke-miterlimit="10" d="M929.448,372.834c0,1.1-0.9,2-2,2h-10.662
		c-1.1,0-2-0.9-2-2v-36.22c0-1.1,0.9-2,2-2h10.662c1.1,0,2,0.9,2,2V372.834z"/>
</g>
<g>
	<path fill="#FFFFFF" d="M584.575,428.761c1.1,0,2,0.9,2,2v10.662c0,1.1-0.9,2-2,2h-25.338c-1.1,0-2-0.9-2-2v-10.662
		c0-1.1,0.9-2,2-2H584.575z"/>
	<path fill="none" stroke="#A4B3C1" stroke-width="2" stroke-miterlimit="10" d="M584.575,428.761c1.1,0,2,0.9,2,2v10.662
		c0,1.1-0.9,2-2,2h-25.338c-1.1,0-2-0.9-2-2v-10.662c0-1.1,0.9-2,2-2H584.575z"/>
</g>
<g>
	<path fill="#FFFFFF" d="M481.575,13.655c1.1,0,2,0.9,2,2v10.662c0,1.1-0.9,2-2,2h-25.338c-1.1,0-2-0.9-2-2V15.655c0-1.1,0.9-2,2-2
		H481.575z"/>
	<path fill="none" stroke="#A4B3C1" stroke-width="2" stroke-miterlimit="10" d="M481.575,13.655c1.1,0,2,0.9,2,2v10.662
		c0,1.1-0.9,2-2,2h-25.338c-1.1,0-2-0.9-2-2V15.655c0-1.1,0.9-2,2-2H481.575z"/>
</g>
<g>
	<path fill="#FFFFFF" d="M843.146,372.834c0,1.1-0.9,2-2,2h-10.662c-1.1,0-2-0.9-2-2v-36.22c0-1.1,0.9-2,2-2h10.662c1.1,0,2,0.9,2,2
		V372.834z"/>
	<path fill="none" stroke="#A4B3C1" stroke-width="2" stroke-miterlimit="10" d="M843.146,372.834c0,1.1-0.9,2-2,2h-10.662
		c-1.1,0-2-0.9-2-2v-36.22c0-1.1,0.9-2,2-2h10.662c1.1,0,2,0.9,2,2V372.834z"/>
</g>
<g>
	<path fill="#FFFFFF" d="M756.844,372.834c0,1.1-0.9,2-2,2h-10.662c-1.1,0-2-0.9-2-2v-36.22c0-1.1,0.9-2,2-2h10.662c1.1,0,2,0.9,2,2
		V372.834z"/>
	<path fill="none" stroke="#A4B3C1" stroke-width="2" stroke-miterlimit="10" d="M756.844,372.834c0,1.1-0.9,2-2,2h-10.662
		c-1.1,0-2-0.9-2-2v-36.22c0-1.1,0.9-2,2-2h10.662c1.1,0,2,0.9,2,2V372.834z"/>
</g>
<circle fill="#FFFFFF" stroke="#A4B3C1" stroke-width="2" stroke-miterlimit="10" cx="546.468" cy="96.381" r="6.705"/>
<text transform="matrix(1 0 0 1 559.2169 98.0857)" fill="#13244B" font-family="'Gibson Regular','Helvetica neue',Helvetica,Arial,sans-serif" font-weight="600" font-size="11">PERSONALITY TEST</text>
<text transform="matrix(1 0 0 1 586.5104 175.1679)" fill="#13244B" font-family="'Gibson Regular','Helvetica neue',Helvetica,Arial,sans-serif" font-weight="600" font-size="11">PHONE INTERVIEW</text>
</svg>
