<svg id="Layer_1" data-name="Layer 1" xmlns="http://www.w3.org/2000/svg" viewBox="0 0 400 260"><title>Bookingvalue 1</title><rect x="19.4" y="37.6" width="256.3" height="2.88" transform="translate(295.2 78.1) rotate(180)" style="fill:#009fe3"/><rect x="19.4" y="41.7" width="256.3" height="0.96" transform="translate(295.2 84.5) rotate(180)" style="fill:#009fe3"/><rect x="19.4" y="231.9" width="364.9" height="2.88" style="fill:#009fe3"/><rect x="19.4" y="229.6" width="364.9" height="0.96" style="fill:#009fe3"/><path d="M20.5,75.3l-.4-1.5H21l5.3-.9V67.1H20.1V65.8h6.1V61.1l-2,.2-3,.3L21,60.6v-.3q5.5-.5,10.9-1.4l.4,1.3-1.1.2-3.4.5v4.9h7.8q-.2-3.9-.2-8.3h1.5q0,4.4.2,8.3h9.7v1.3H37.1q.1.8.2,2.3a9.3,9.3,0,0,1,.2,1.6,33.2,33.2,0,0,0,.8,4.2,34.5,34.5,0,0,0,5.3-5.9l1.3.9a34.5,34.5,0,0,1-6.1,6.6,11.3,11.3,0,0,0,1.1,2.5q1.3,2.6,3.1,2.6t1.6-1.5a15.7,15.7,0,0,0,.8-3.6l.4.2,1,.3a27.8,27.8,0,0,1-.9,3.7,2.9,2.9,0,0,1-3,2.4q-2.6.1-4.5-3.6a8,8,0,0,1-.9-2,35.9,35.9,0,0,1-6.9,4,4.9,4.9,0,0,0-1-1.2,28.3,28.3,0,0,0,7.3-4.4,32.4,32.4,0,0,1-1-5c0-.3,0-.8-.1-1.4a23.2,23.2,0,0,1-.2-2.7H27.8v5.4l3.8-.8,1.6-.3v1.4l-2.4.5-3.1.5v6.3q.1,2.7-2.7,2.8H21.9a8,8,0,0,0-.3-1.5h3q1.9.1,1.8-1.4v-6l-1.4.2ZM38.9,60.1l1.1-1q2.1,1.6,4.5,3.9l-1.1,1-1.1-1Z" style="fill:#009fe3"/><path d="M51.6,72.4l-.3-.9-.3-.9a45,45,0,0,0,6-12.8l1.5.5q-1.1,3.1-2.4,5.9V83.6H54.6V67.2A56.1,56.1,0,0,1,51.6,72.4Zm9.2,10.9V64h1.4V83.3Zm.3-24.6,1.2-.8,1.9,2.2,1.5,1.8-1.3.9-.7-.9Zm15,21q.1,3.6-3.5,3.6H68.6a16.4,16.4,0,0,0-.3-1.6H72q2.8.1,2.6-2.2V61.4H67.4V59.9h8.6Z" style="fill:#009fe3"/><path d="M82.5,76.2l-.4-.8a2.4,2.4,0,0,0-.4-.8,30.4,30.4,0,0,0,4.7-10.2H82.1V63.2h4.2V57.7h1.5v5.5h3.8v1.3H87.8v4.7l.8-.8,3.5,3.4-1.1,1-.2-.3-3-3.1V83.6H86.3V67.6A26.8,26.8,0,0,1,82.5,76.2ZM93.3,59.4h13.8V83.6h-1.4V81.8H94.8v1.9H93.3Zm1.5,1.4v5.7h10.8V60.8Zm0,7v5.8h10.8V67.8Zm0,7.1v5.6h10.8V74.9Z" style="fill:#009fe3"/><path d="M113.3,72l-.7-1.5a43.7,43.7,0,0,0,5.9-12.9l1.4.4a47.5,47.5,0,0,1-2.4,6.3V83.6h-1.4V67.3A53.5,53.5,0,0,1,113.3,72ZM128,58l1.4-.5,1.3,2.7.2.5-1.2.4h9.3v1.4H120.4V61.2h9.2v-.3Zm-6.1,7.7h15.5V67H121.9Zm0,4.4h15.5v1.4H121.9Zm.3,4.5h14.9v9.1h-1.4V82h-12v1.6h-1.4Zm1.4,1.3v4.8h12V75.9Z" style="fill:#009fe3"/><path d="M21.3,194.7h2.8q.9-2.6,1.3-4.5l1.5.3-1.3,4.2h5.6v21H29.7v-2.2h-7V216H21.3Zm1.4,1.3v7.4h7v-7.4Zm0,8.8v7.5h7v-7.5Zm10.9-4.2-.7-.4-.7-.3a42.4,42.4,0,0,0,4.2-9.6l1.5.3q-.7,2-1.5,4h9.1v1.8q-.2,9.7-.5,15t-4.7,4.4H36.1v-.3a3,3,0,0,0-.3-1.2h4.5q3.5.1,3.5-3.2t.3-11.5q.1-2.5.1-3.6H36A43.5,43.5,0,0,1,33.7,200.7Zm1.2,1.3,1.1-.9.7.9q2.4,3,3.7,4.9l-1.2.9Q37.1,204.7,34.9,202Z" style="fill:#009fe3"/><path d="M61.5,190.3H63q0,4.2-.1,6.2H75.3q0,.9-.1,2.8-.1,7.1-.3,10.3-.1,5.9-5.4,5.7H64.9l-.2-1a3.2,3.2,0,0,1-.1-.8h4.7q4,.3,4-4.6,0-.8.1-2.4.2-6.1.2-8.9H62.8v.4q-.1,12.4-10.2,17.7l-.4-.4-.8-.8q9.7-5.4,9.8-16.1v-.9h-9v-1.4h9.1Q61.5,192.3,61.5,190.3Z" style="fill:#009fe3"/><path d="M85.1,202.5H105v7.2H95.7v1.9h10.4v1.1H95.7v1.6h12.6v1.1H81.8v-1.1H94.4v-1.6H84v-1.1H94.4v-1.9H85.1ZM82,199.8h26.1v1H82Zm2.8-8.3h20.2V198H84.9Zm1.4,1v1.8h17.5v-1.7Zm0,2.7V197h17.5v-1.9Zm.2,8.3v2.1h7.9v-2.1Zm0,3.1v2.1h7.9v-2.1Zm17.1-3.1H95.7v2.1h7.9Zm-7.9,3.1v2.1h7.9v-2.1Z" style="fill:#009fe3"/><path d="M23,133.6l-2.8-3.1a31.3,31.3,0,0,0,7-6.7l-5-4.4-.5-.5q.8-3.3,2.3-11.1H20.9V104h3.9l.9-7.3,4.2.3q-.2,1.3-.6,3.9l-.5,3.1h6.6v3.9q-.6,10-3.3,15l5.9,5-3.1,2.8-2.7-2.3-2.2-1.9A40.3,40.3,0,0,1,23,133.6Zm3-15.8,3.1,2.5a37.7,37.7,0,0,0,2.5-12.5H28.2l-1.2,5.8Zm10.8-.5v-3.9h9.1v-4.7l6.3-6.2H38.2V98.6H57.3v4.2l-7,7.2v3.4h8.1v3.9H50.2v10.8q.2,5.2-5.3,5.2H39.8a6.7,6.7,0,0,0-.2-1.1l-.6-2.8h4.4q2.7,0,2.5-2.5v-9.5Z" style="fill:#009fe3"/><path d="M62.9,103.6v-3.4H77.6a22.9,22.9,0,0,0,.3-3.8h4.1a30.8,30.8,0,0,1-.2,3.8H96.2v3.4H80.7l-.2.6,8.3,2.3,6.6,1.9-1.9,3.1H98V115H93v13q.3,5.3-5.5,5.5H81.6a28,28,0,0,0-.9-3.9H86q3.1.2,3-2.3V115H60.9v-3.4h3.6a23,23,0,0,0-1.9-3.3q11.9-.9,14.1-4.7Zm30.5,8L86,109.3l-7.3-2.3q-3.1,3.1-13.7,4.7ZM65.1,130.7V117.9H83.4v10.9H69v1.9Zm3.9-9.5v4.4H79.3v-4.4Z" style="fill:#009fe3"/><path d="M104.3,124.7a14.4,14.4,0,0,0-2.8-1.1l-1.2-.5a148.4,148.4,0,0,0,4.2-14.8l4.2,1.3Q106.6,117.4,104.3,124.7Zm12.5,7.8q-6.6.2-6.4-6.1V104.9h4.5v20.6q-.2,3.4,3.3,3.3H123a3.4,3.4,0,0,0,3.9-3.1,16.4,16.4,0,0,1,.2-1.7l.5-3.4,2.2.8,2.2.8q-.5,3.4-1.1,6.3-.8,4.4-7,4.2Zm6.1-24.1q-2.8-3.3-8.7-9.1l3-3A121.8,121.8,0,0,1,126,105Zm11.6,13.8q-2.8-5.8-6.6-12.8l3.8-2q2.8,5,6.9,12.7Z" style="fill:#009fe3"/><path d="M159.9,119.7l-3.1,3.1-8.4-9.2,3-2.7Z" style="fill:#009fe3"/><path d="M176.1,123.2v-3.7H195l.3-1.2a54.7,54.7,0,0,0,1.3-11.9h4.4a69.9,69.9,0,0,1-1.2,12l-.2,1.1H213v3.8H198.4l-.5,1.1,14.4,5.6-2,3.8q-7.5-3.6-14.5-6.2-4.2,4.4-17.3,6.6l-2.2-4.1q15.2-1.6,17.3-6.7Zm.8-13.9v-8.4H193l-.6-1.6a12.9,12.9,0,0,0-1.1-2.3l4.8-.6.8,1.7a22.7,22.7,0,0,0,1.1,2.8h14.2v8.4H208v-4.7h-27v4.7Zm11.7,10q-4.4-2.5-8.4-4.4l2-3.1,2.8,1.4,5.6,2.8Zm3.6-5.9q-4.2-2.5-8.1-4.4l1.7-3,8.3,4.1Z" style="fill:#009fe3"/><path d="M215.6,126l-.2-3.9,2-.3,6.9-.8a20.5,20.5,0,0,0,0,3.6Zm3.1,7.3V133a29.2,29.2,0,0,0-.6-3.6l4.5.2q3,.2,3-2.3.3-4.5.3-9.4h-9.2l.9-14.2h3.6l-.8,10.5h3.6l.9-12.2h-8.9V98.3h12.8l-1.2,15.8h2.2q-.2,2-.3,7.5t-.3,6.3q0,5.5-6.1,5.5ZM252,112.1l-3.1-2.2v3.4H233.6v-3l-.2.2-2.7,1.9a17.2,17.2,0,0,0-1.9-3.6A27.4,27.4,0,0,0,240,96.5l4.1.5-.8,1.6a30.4,30.4,0,0,0,10.3,9.7A25.4,25.4,0,0,0,252,112.1Zm-21.7,20.2V129h13.4q2.8-8.9,3.8-13.3l3.6.9q-1.9,6.3-3.9,12.3h5.3v3.3Zm3.8-5a95.2,95.2,0,0,0-2.8-10.3l3.3-.8q.9,2.7,2.7,8.8a9.6,9.6,0,0,0,.3,1.4Zm7.3-25.5a28.4,28.4,0,0,1-7.2,8.1h14.5A31.7,31.7,0,0,1,241.4,101.8Zm-.8,23.8a58.9,58.9,0,0,0-1.6-7.7l-.5-1.9,3.3-.6q1.2,4.7,2.2,9.5Z" style="fill:#009fe3"/><path d="M21,154.6v-3.7h6.6v-5.2l-2.8.2-3,.2q-.2-.8-.3-2.2a6.6,6.6,0,0,1-.3-1.7q9.4-.3,15.5-1.1l.8,3.8a51.6,51.6,0,0,1-5.9.6v5.5h6.4v3.8H31.5v5l1.4-1.4,2.8,2.5,2.8,2.5-2.7,3.1-2-2.2-2.3-2.3v15H27.6V161a44.8,44.8,0,0,1-5.8,9.5,15.3,15.3,0,0,0-.8-2.3q-.5-1.6-.8-2.3a32.6,32.6,0,0,0,6.7-11.2Zm18.9,21.1V143.4H56.6v32.2H52.6v-3.4H44v3.6ZM44,147.1v21.3h8.6V147.1Z" style="fill:#009fe3"/><path d="M61,150.5v-3.7h4.4v-7.2h3.9v7.2h3.9v3.8H69.3v6.9l1.9-.5,1.9-.3q0,2.3.2,4.1l-3.9.8v10.8q0,4.1-3.9,4.2H61.6a29.5,29.5,0,0,1-.8-4.1h.6a7.7,7.7,0,0,0,2.2,0c1.3.1,1.8-.4,1.7-1.6v-8.4l-.8.2-3.7.9-.5-4.5,5-.8v-7.7Zm14.4-2.7v-3.6h8.4v-4.7h4.1v4.7h8.8v3.6H87.9v4.4H98.4V156H73.5v-3.7H83.8v-4.4Zm-1.7,15.8v-3.7H89v-2.8h4.2v2.8h5v3.8h-5v7.7q.2,5-5.3,5l-5.9.2q-.2-.8-.3-2.5a6.5,6.5,0,0,1-.3-1.6l4.8.2q3.1.3,2.8-2.5v-6.4Zm6.6,8.3q-1.1-1.4-4.4-5l-.6-.6L78,164l3.3,3.1,2.2,2.2Z" style="fill:#009fe3"/><path d="M101.3,155.2l-.9-3.6a7.5,7.5,0,0,0,2-2.8,54.2,54.2,0,0,0,4.7-9.5l3.9,1.3q-3.3,6.1-6.1,10.9l3.8-.2a18.6,18.6,0,0,1,1.3-2.3l.9-1.9,3.3,1.6q-3.7,7-7.8,13.1l3-.3,3-.2V163a12.8,12.8,0,0,0-.2,1.7l-5,.5-2,.2-2.8.5-1.2-3.4a10.7,10.7,0,0,0,2.7-2.7,37.4,37.4,0,0,0,3-5l-4.4.3Zm-.3,18.9-.6-3.6,2.5-.3,9.7-1.4v3.6L102.4,174Zm12.5-6.6v-3.4h11.3a68.2,68.2,0,0,0,.5-9.5h4.1a74.7,74.7,0,0,1-.5,9.5H138v3.4H128l-.3.8,5.3,2.5,5,2.3-2.3,3.6a76.3,76.3,0,0,0-9.8-5.3q-3,3-12,5.6a24.5,24.5,0,0,0-1.4-2.7,4,4,0,0,1-.6-1.1q10.2-1.9,12-5.8Zm6.7-4.2-6.7-3,1.3-2.2a53.8,53.8,0,0,1,6.7,2.8Zm-5.2-16.7v-3.4h8.6v-3.6h4.2v3.6h8.6v3.4h-8.6v3.3h9.8v3.3l-1.1,5.3-3.7-.5,1.3-4.8H113.8v-3.3h9.8v-3.3Zm7.3,12.3-6.6-2.8,1.3-2.2,5,1.9,1.6.6Z" style="fill:#009fe3"/><path d="M141,167.1v-3.9h17.3v-1.1l6.4-3.9H147.6v-3.7H171v3.8l-8.1,5H178v3.9H162.7v4.5q.2,5-5.3,5h-6.1q-.5-2.2-.9-4.1h2.5l2.7.2q3.1.3,2.8-2.5v-3.1Zm.9-11.2v-8.6h23.4l-.6-.3q3.1-4.2,5-7.2l4.5,1.4-1.7,2.3-2.8,3.8h7.2v8.6h-4.1V151H146v4.8Zm6.3-8.9-1.9-3-2-2.8,4.2-1.2,4.1,5.5Zm10.2-.8-.9-1.7a48.6,48.6,0,0,1-2.5-4.2l4.2-.8,3.8,5.8Z" style="fill:#009fe3"/><path d="M183.4,171l-1.7-4.7q13.1-4.1,25.9-8.9,0,.6.2,2.3c.1,1.3.2,2.1.2,2.5Q193.4,167.3,183.4,171Zm15.5,5-.9-4.4,7,.2q5.6.5,5.3-5.5.3-4.1.5-15.2.2-3.3.2-4.7H182.7v-4.2h32.8q-.3,14.5-.8,25.6.2,8.1-8.3,8.1Zm-.8-17.3L194,156l-6.9-4.2,2.7-3.1q5.9,3.3,11.3,6.6Z" style="fill:#009fe3"/><path d="M332.9,24.7a12.7,12.7,0,1,0,12.7,12.7A12.7,12.7,0,0,0,332.9,24.7Zm0,6.3a6.3,6.3,0,1,1-6.3,6.3A6.3,6.3,0,0,1,332.9,31Zm-31.7,6.3a9.5,9.5,0,1,0,9.5,9.5A9.6,9.6,0,0,0,301.2,37.3Zm0,6.3a3.2,3.2,0,1,1-3.2,3.2A3.1,3.1,0,0,1,301.2,43.7Zm9.2,12.7a3.2,3.2,0,1,0,.3,6.3h.9V82.9l-1.4.5a41.4,41.4,0,1,0,26.1,0h-.2l-1.2-.5V62.7h1a3.2,3.2,0,1,0,0-6.3H310.4Zm7.6,6.3h10.6V84.1a4.1,4.1,0,0,0,1.3,3,7.2,7.2,0,0,0,1.6,1.2,12.7,12.7,0,0,0,3,1.2,35,35,0,1,1-22.3-.1h0a19.4,19.4,0,0,0,2.7-1,5.9,5.9,0,0,0,1.8-1.3,4.6,4.6,0,0,0,1.2-3Zm25.4,6.8a3.2,3.2,0,0,0-.9,6.2A57.9,57.9,0,0,1,383,140l-27.9,60.9a3.2,3.2,0,0,0-.3,1.6l1.7,22.3a3.2,3.2,0,1,0,6.3-.5l-1.6-21.5L389,142a3.2,3.2,0,0,0,.3-.8,64.6,64.6,0,0,0-44.9-71.6h-.9Zm-39.8,1.1h0l-1.1.2a64.5,64.5,0,0,0-41.3,50.4l-23,45.8a3.2,3.2,0,0,0,2.8,4.6H250v32a3.2,3.2,0,0,0,3.2,3.2h25.2l1.8,18.1a3.2,3.2,0,0,0,3.5,3,3.2,3.2,0,0,0,2.8-3.6l-2-20.9a3.2,3.2,0,0,0-3.2-2.9H256.4v-32a3.2,3.2,0,0,0-3.2-3.2h-7.1L267,123.6a3.2,3.2,0,0,0,.3-.9,58.3,58.3,0,0,1,37.3-45.9,3.2,3.2,0,0,0-1.1-6.2Zm-8.3,42.9-.3,2.8a26,26,0,0,0,.7,7.4,27.8,27.8,0,0,0,27.5,23.7h0a28.3,28.3,0,0,0,28.1-23.7,26.4,26.4,0,0,0,.7-7.4l-.3-2.8Zm6.3,6.3h43.7c-.1,1-.1,1.7-.3,2.9a21.9,21.9,0,0,1-21.8,18.4h0c-10.9,0-19.5-7.6-21.2-18.4-.2-1.2-.2-1.9-.3-2.9Z" style="fill:#009fe3"/></svg>