<svg id="Layer_1" data-name="Layer 1" xmlns="http://www.w3.org/2000/svg" viewBox="0 0 400 260"><title>Bookingvalue 2</title><path d="M144.5,89.9a95.2,95.2,0,0,1-9.9-5.3v4.6H100.3V85.1l-3.8,2.3-6.1,3.6a37.2,37.2,0,0,0-2-3.3q-1.3-2-1.8-3.1,20.1-9.4,28.8-22.6l8.1.5L121.6,65q9.7,12,26.7,18.6ZM94.7,123.3V96h45.5v27.2h-6.9v-3.6H101.5v3.6Zm6.9-21.1v12h31.8v-12Zm16.3-32.3a69.6,69.6,0,0,1-14.8,13.2h29.3A62.8,62.8,0,0,1,117.8,69.8Z" style="fill:#009fe3"/><path d="M252,99.8l-1.5-6.6a8.3,8.3,0,0,0-.5-1.5,111.6,111.6,0,0,0,13.2-29.5l6.6,1.8A139.1,139.1,0,0,1,265,77.2V123h-6.6V90.2Q255.3,95.3,252,99.8Zm20.1-7.4-4.8-5.1q7.9-9.9,12.5-25.2l7.1,1.3q-.8,1.8-2,5.3-.8,2-1.3,3.1h28.2v6.4H290.7v9.4h17.6V94H290.7v9.7H310v6.1H290.7V123h-6.6V78.2h-3.3A83.8,83.8,0,0,1,272.1,92.5Z" style="fill:#009fe3"/><path d="M88.8,160.9v-6.6h12.5V142.8h7.1v11.5h18.1V142.8h7.1v11.5h12.5v6.6H133.6v15.5h14.8v6.4H86.8v-6.4h14.5V160.9Zm3.3,42.2a31.9,31.9,0,0,0-4.6-5.9,164.9,164.9,0,0,0,20.6-12l5.1,5.1Q100.5,198.6,92.1,203.1Zm16.3-42.2v15.5h18.1V160.9Zm33.3,42q-4.8-3.3-14.8-9.2l-5.3-3.3,4.6-5.1,4.8,2.8q9.9,5.6,15.3,8.9Z" style="fill:#009fe3"/><path d="M254.1,203.4l-3.1-2.3-1-.8q4.3-5.3,3.8-17v-8.7h14.8v21.9q.3,6.1-5.3,6.1l-2,.3h-2.3a17.6,17.6,0,0,1-.5-3.1,6.9,6.9,0,0,1-.3-1.5h3.1q3.1.3,2.8-2.3v-2h-6.1A25.6,25.6,0,0,1,254.1,203.4Zm-3.6-51.9v-4.6h27a16.7,16.7,0,0,0-1.3-4.1l7.6-.8.8,2.3.8,2.5h26v4.6H262.7v3.3h43.5v3.8H256.4v-7.1Zm6.4,20.4V161.4H305v10.4Zm1.8,14.2-.3,4.3H264v-4.3Zm0-7.6v4.1H264v-4.1Zm4.6-13.5v3.3h35.4V165Zm8.9,38.4c0-.2-.2-.3-.5-.5a12.4,12.4,0,0,0-2.5-3.3q9.2-3.8,8.7-13.2V181h4.3v5.3a11.2,11.2,0,0,1-.3,2,29.3,29.3,0,0,1-.5,3.6q2,1.5,5.9,4.8a5.5,5.5,0,0,0,1.3,1l-3.1,3.6q-1.5-1.8-5.3-5.3Q278,199.6,272.1,203.4Zm-1-10.9V174.6h17.3v17.8h-3.8V178.7h-9.4v13.7Zm27.5-.3q-1.3-3.6-2.8-6.9.5,11.5-5.1,18.3a48.7,48.7,0,0,0-3.8-3.3q5.1-5.1,4.6-16v-9.7H306v21.6c0,1,.4,1.4,1.3,1.3s1.4-.5,1.5-1.5v-1.5c.2-1.7.3-3,.3-3.8l2.3.8,1,.3a36,36,0,0,1-.5,6.4q-.8,4.1-4.6,4.1h-1.8q-4.3.3-4.1-4.8v-6.1Zm-2.8-13.5v5.1l2.3-1q2.5,5.6,3.3,7.6V178.7Z" style="fill:#009fe3"/><path d="M103.3,40.5l-.4-1.3h.7l4.3-.7V33.8h-5V32.7h5V28.8l-1.6.2-2.4.3-.3-.9v-.3l9-1.2.4,1.1-.9.2-2.8.4v4h6.4q-.2-3.2-.2-6.8h1.3q0,3.6.2,6.8h8v1.1h-8q.1.6.2,1.9a7.6,7.6,0,0,1,.2,1.3,27.2,27.2,0,0,0,.6,3.4,28.3,28.3,0,0,0,4.3-4.9l1.1.7a28.3,28.3,0,0,1-5,5.4,9.3,9.3,0,0,0,.9,2.1q1.1,2.2,2.5,2.2t1.3-1.3a13,13,0,0,0,.6-3l.4.2.8.3a22.9,22.9,0,0,1-.7,3.1,2.4,2.4,0,0,1-2.4,2q-2.2.1-3.7-3a6.6,6.6,0,0,1-.7-1.6,29.5,29.5,0,0,1-5.7,3.3,4,4,0,0,0-.8-1,23.2,23.2,0,0,0,6-3.6,26.6,26.6,0,0,1-.8-4.1c0-.2,0-.6-.1-1.2a19,19,0,0,1-.2-2.2h-6.5v4.4l3.1-.6,1.3-.3v1.2l-2,.4-2.5.4v5.2q.1,2.2-2.2,2.3h-2.6a6.7,6.7,0,0,0-.3-1.3h2.4q1.5.1,1.4-1.2V39.6l-1.2.2ZM118.4,28l.9-.8q1.7,1.3,3.7,3.2l-.9.8-.9-.8Z" style="fill:#009fe3"/><path d="M161,38.1l-.3-.7-.3-.7a37,37,0,0,0,4.9-10.5l1.3.4q-.9,2.5-2,4.9V47.3h-1.2V33.8A46.2,46.2,0,0,1,161,38.1Zm7.5,9V31.1h1.2V47Zm.3-20.2,1-.6,1.5,1.8,1.3,1.4-1.1.7-.5-.7Zm12.3,17.2q.1,3-2.9,3H175a13.7,13.7,0,0,0-.3-1.3h3.1q2.3.1,2.2-1.8V29.1H174V27.8h7.1Z" style="fill:#009fe3"/><path d="M226.9,45.4h6.6l6.3-.2-.2.7-.3.6H226.8q-4,0-5.5-2.5a35.3,35.3,0,0,0-2.5,3.1l-.8-1a31.9,31.9,0,0,1,2.9-3.1V35h-2.7V33.8H222v9.3Q223.3,45.4,226.9,45.4ZM222,31l-2-2.9-1-1.3.9-.6,3.1,4Zm3.7-2.6h3.5l.7-2,.2-.6,1.3.2a24.4,24.4,0,0,1-.9,2.4h6.8v5.8H226.9V37h11v6.2H225.7Zm1.3,1.2v3.6H236V29.5Zm9.7,8.6h-9.7v4h9.7Z" style="fill:#009fe3"/><path d="M276.4,44.3l-.6-1.3q5.5-2.6,8.7-4.5a1.5,1.5,0,0,0,.1.4,5.5,5.5,0,0,0,.2.9Zm9.5-18.4h1.3v4.7h9.8v1.2h-9.8v.6a25.2,25.2,0,0,0,2.7,5.4,43,43,0,0,0,4.9-4.3l1,.8-3.1,2.6-2.2,1.9a20.1,20.1,0,0,0,6.6,5.2l-.6.7-.3.2a18.1,18.1,0,0,1-9.2-9.7V44q.2,2.9-3.1,2.9h-2.4a4.4,4.4,0,0,0-.3-1.3h2.4q2.2.2,2.1-2.1V31.7h-10V30.5h10Zm-4.3,12L278.1,34l1-.7,3.6,3.9Zm7.9-10.2.8-.8,3.2,2.4-.9.9Z" style="fill:#009fe3"/><path d="M209.6,81.9c-1.7.3-2.4,1.7-3.8,2.1h-.3c-1.7,1.3-2.5,4.2-2.5,6.6-2.2.6-3.1,3.4-3.6,5.4a47,47,0,0,0-.7,8.5,11.4,11.4,0,0,0-.7,5.9c.5,4.5.5,9.4,3.2,13.4,1,2,1,4.4,1.9,6.5s2.7,5.3,4.1,7.9c4.7-4.5,6.3-5.4,8-11.2-1-1.2-2.7-3.4-1.3-4.7s3.5-3.8,4.8-6.1h0A18.6,18.6,0,0,1,221,109c1.3-1.2,4.5-2.8,2.8-4.9a10.2,10.2,0,0,0-6.9.9c-1.2.4-.8-1.5-1-2.3s-.2-4.5-.6-6.7-.7-5.3-1.3-8-3.4-.9-2.6-3.2,0-3-2-2.9ZM171.5,92.8c-2.4,0-2.2,1.9-4.3,3s-.1,4.8.2,7.1c.9,3.9,1.3,7.9,2.5,11.8a28.6,28.6,0,0,1,.9,6.1c-2.1-.8-2.9-3-4.8-4s-6.6-1.8-6.1,1.3a24,24,0,0,1,4.7,5.8c3.7,3.9,7.5,7.7,11.4,11.3,1.7,3.1.2,6.7-.5,9.8l2.8,1c4.3,1,8.6,2.1,13,2.9,1.4-3.7.4-9.1,1.4-12.9,1.2-1.1.2-3.3.7-4.7.3-4.8-1-9.5-2.5-14s-2.4-6.9-4.5-10-2.1-6.7-5.5-6.1a18,18,0,0,0-3.8-5.5c-.2-.1-.3,0-.5,0-2.2.5-1.8-2.8-4.1-2.9h-.9Zm48.1,37.4h-.3c-.4.5-1.2,5.4-3.2,7.3-4,5.2-9.6,9.6-14,13.5,7.8,5.3,13.1,12.7,19.1,18.9a9.9,9.9,0,0,0,6.4,3.4h13.9V152.5h-4c-3.8,0-3.8,0-5.7-2s-6.2-6.7-7.3-9.5-3.1-7.1-4.7-10.6l-.3-.2Zm.4.5h0Zm-44.5,17.5h-2.3c-.9,5.7-1.7,10.1-2.6,14.7-1.6,7.6-4.1,16.1-6.8,19.6l-6.5,8.4h32.6L202,158.1c-8.8-4.9-8.8-4.9-13.5-6.6-8.5-2.7-10.1-3.3-12.9-3.3Z" style="fill:#009fe3"/><path d="M52.4,236.5,57,232V221.5h1.2V243H57v-9.3l-3.9,4Zm.2-11,1-.5.6,1.2,2.2,3.9-1.1.5Zm7.5,2.3-.4-.4-.4-.4a25.6,25.6,0,0,0,6.5-5.7l1.1.5-.5.6a11.5,11.5,0,0,1-1.5,1.6h8.7v1.2q-4.2,5.1-13.3,7.2l-.6-1.1q8.4-1.8,12.4-6.1H63.5l-.8.5.9.7,2.1,1.6-1,.8-2.5-2.2-.3-.2Zm9.8,2.9h1.3v2.8h3.3v1.2H71.1v5.4q.1,2.3-2.7,2.4H65.8a1.5,1.5,0,0,0-.1-.4l-.2-.9h2.6q1.8.1,1.7-1.5v-5.1H59.3v-1.2H69.8Zm-8.2,5.4.9-.7,2.2,2.2,1.1,1.1-1,.8Z" style="fill:#009fe3"/><path d="M76.6,242.9V222.3H96.2v20.6H93.8v-1H79.1v1Zm2.4-18.4v15.5H93.8V224.5Zm1.2,5.3v-2.1H88v-2.4h2.2v2.4h2.7v2.1H90.2v6.1q.2,3-2.8,3H84.8l-.5-2.2h2.2q1.5.1,1.4-1.3v-4.9a20.5,20.5,0,0,1-7,6.7l-1.2-1.4-.3-.4a17.8,17.8,0,0,0,6.7-5.9Z" style="fill:#009fe3"/><path d="M99.5,242.8V222.4h7.7v2.2l-1.9,5.4a7.6,7.6,0,0,1,2,4.9q0,3.1-2.7,3.4h-2a13.5,13.5,0,0,0-.5-2.3h1.6a1.3,1.3,0,0,0,1.3-1.5q.1-1.8-2-4.4l1.8-5.7h-3.1v18.2Zm7,.1-1.6-2.2q6.2-4.5,6.2-13.9.1-1.7.1-5.1h2.5q0,2.7-.1,4.2.8,10.3,6.8,14.4l-.8,1.2-.9,1.2a16.4,16.4,0,0,1-6-10.5A17.2,17.2,0,0,1,106.5,242.9Z" style="fill:#009fe3"/><path d="M140,242.7q-2.3.1-4-3.2a41.4,41.4,0,0,1-4,3.2l-1.6-1.8a23.6,23.6,0,0,0,4.7-3.9,41.6,41.6,0,0,1-1.3-9.5h-7.9v3H132q0,1.9-.2,5.5v.6q0,3.4-3.1,3.4h-2.2a5.1,5.1,0,0,0-.2-1.2,10.2,10.2,0,0,0-.2-1.2H128a1.3,1.3,0,0,0,1.5-1.4,16,16,0,0,0,.1-1.9q.1-1.3.1-1.9h-3.9a18.9,18.9,0,0,1-2.3,10.4l-.5-.4-1.5-1.1a14.8,14.8,0,0,0,1.7-4.1,33.6,33.6,0,0,0,.4-5.7v-6.3h10.2q-.1-1.3-.1-4h2.3q0,2.7.1,4h7.1v2.2h-7a45,45,0,0,0,.9,7.3,40.5,40.5,0,0,0,3-5.7l2.2.9a34.6,34.6,0,0,1-4.3,7.5.4.4,0,0,1,.1.3q1,2.6,2,2.6t.9-1a16.6,16.6,0,0,0,.5-3.1l1.5.6h.4a18.9,18.9,0,0,1-.6,3.5A2.7,2.7,0,0,1,140,242.7Zm0-17.4-2.8-2.4,1.6-1.2a27.3,27.3,0,0,1,2.9,2.3Z" style="fill:#009fe3"/><path d="M144.7,226.1v-2.3h8.4v2.3h-2.9v9.8l3.1-.6a25,25,0,0,0,.1,2.5l-8.4,2-.4-2.7,3.4-.6V226.1Zm13.2,16.4a7.5,7.5,0,0,0-.5-2.3h3.1a1.8,1.8,0,0,0,2.2-2.1v-.5q.3-6.6.3-9.5h-4.3v1q-.1,9.4-5.7,13.8l-.8-.5-1.3-1a13.8,13.8,0,0,0,4.2-4.9,23.1,23.1,0,0,0,1.3-7.5v-.9h-2.5v-2.3h2.7q0-2.8.1-4.3h2.4q0,.8-.1,2.2v2.1h6.7q-.2,7.7-.4,12.9,0,3.6-3.5,3.7h-3.5Z" style="fill:#009fe3"/><path d="M167.6,241.2h3.2V231h7v-1.6H168v-1h9.8v-1.3H179v1.3h9.8v1H179V231h7.1v10.2h3.2v1H167.6Zm2-18.8h17.9v4H169.5Zm1.1.9v2.2h4.5v-2.2Zm1.3,8.6v1.7h12.9v-1.7Zm0,2.6v1.6h12.9v-1.6Zm0,2.6v1.6h12.9v-1.6Zm0,2.6v1.4h12.9v-1.4Zm4.2-16.4v2.2h4.5v-2.2Zm10.1,0h-4.5v2.2h4.5Z" style="fill:#009fe3"/><path d="M192.4,223.1h18.1v1.2h-8.1v6.4h9.8v1.3h-9.8v7.5q.1,3.1-3,3.1h-3.2a13.7,13.7,0,0,0-.3-1.3h3q2.3.2,2.2-1.9v-7.4H190.6v-1.3h10.4v-6.4h-8.6Z" style="fill:#009fe3"/><path d="M234.3,231.9a25.8,25.8,0,0,1-9.7-8.3,29,29,0,0,1-10.2,8.7l-.9-1.1q7.5-4,11-9.8l1.3.3-.5.9a26,26,0,0,0,10,8.2l-.4.5Zm-10.5-2.3h1.3v13.3h-1.3Z" style="fill:#009fe3"/><path d="M257.2,242.4a16.9,16.9,0,0,1-9.7-14.1,18.4,18.4,0,0,1-9.9,14.4l-.4-.4-.5-.6a18.3,18.3,0,0,0,9.8-14.3,41.4,41.4,0,0,0,.3-5.6h1.3q0,.6-.1,1.7a11.6,11.6,0,0,1-.1,1.7q1.4,12.5,10.2,16.1l-.5.6Z" style="fill:#009fe3"/><path d="M262.3,222.6h16.1v20.2h-1.2v-1.9H263.6v1.9h-1.3Zm1.3,1.1v4.7h13.7v-4.7Zm0,5.8v4.6h13.7v-4.6Zm0,5.7V240h13.7v-4.9Z" style="fill:#009fe3"/><path d="M283.1,236.8l-.2-.4-.5-.9a26.4,26.4,0,0,0,3.7-8.2h-3.2v-1.1h3.2v-4.7h1.2v4.7h2.9v1.1h-2.9V231l.6-.5,1.8,1.8,1,1-.9.8-2.5-2.8v11.6h-1.2V230A27.8,27.8,0,0,1,283.1,236.8Zm9.8-3.5,1.2.4q-2.3,4.7-3.6,6.7l-.9-.4h-.2A59.9,59.9,0,0,0,292.9,233.3Zm-2.2-3.8h13.5v1.1h-6.2v9.6q.1,2.3-2.5,2.4h-2.5a5.3,5.3,0,0,0-.2-1.3h2.4q1.7.1,1.6-1.4v-9.3h-6.1Zm1-6.3H303v1.1H291.6Zm8.4,10.6,1.1-.5,3.3,6.7-1.3.4Z" style="fill:#009fe3"/><path d="M307.1,225.7h18V227a67.2,67.2,0,0,1-14.1,11.2h.1q2,2.2,6.2,2.2a93.7,93.7,0,0,0,10.1,0l-.4,1.1v.3h-9.7q-5-.1-7.4-2.9-.4-.4-1,0l-.4.4a15.4,15.4,0,0,0-2.2,2.3l-.7-1.2,2.2-2.2a3,3,0,0,1,1.7-1h.5a70.8,70.8,0,0,0,13.7-10.7H307.1Zm7.7-3.6,1.2-.5.4.7,1.6,2.6-1.3.6Q316.1,224,314.8,222.1Z" style="fill:#009fe3"/><path d="M337.7,221.8H339v6.8h9.3v1.3H339v10.4h11.1v1.3H328.7v-1.3h9Z" style="fill:#009fe3"/><path d="M55.9,63.9c-1.7,3.4-4.7,5.2-8,6.6a2.3,2.3,0,0,0-.9.9l-3.7,8.4L42,83.1c1.4-1.8,2.7-3.3,4-4.8s5-4.7,8.6-5.3a25.7,25.7,0,0,1,11.2.7l.3.2c-.9,1.4-1.7,2.8-2.6,4a16,16,0,0,1-7.3,5.6,28.4,28.4,0,0,1-13.3.9l-1.3-.3a124.4,124.4,0,0,0-5.1,19.5c.8-1.3,1.6-2.7,2.3-3.9,2-3.2,4.3-5.8,8-7a26,26,0,0,1,8.6-1.4h3.1c-.6,1.3-1,2.4-1.4,3.5-1.4,3-3.2,5.6-6,7.4A24.8,24.8,0,0,1,39.8,106l-3.9.3A129,129,0,0,0,34,126.5a3.6,3.6,0,0,0,.3-.9c.4-1.3.9-2.6,1.5-3.9a15,15,0,0,1,8-8.7,34.2,34.2,0,0,1,8.4-2.3l1.5-.2v.7c-.2.6-.3,1.4-.4,2.1-.9,3.9-2.5,7.7-5.9,10.2a29,29,0,0,1-12.2,5.7l-1.5.2a108.4,108.4,0,0,0,1.6,20.6c.5-2.2.9-4.4,1.4-6.5a14.2,14.2,0,0,1,4.5-7.7,32.2,32.2,0,0,1,10-5.4l1.4-.3c-.1,2-.2,3.7-.4,5.4a15.1,15.1,0,0,1-3.3,8.3,28.8,28.8,0,0,1-12.6,8.6l-.5.2a110.9,110.9,0,0,0,5.2,18.5c.1-1.1,0-2.1.1-3.2.1-3.6.7-7,2.9-9.9a25.1,25.1,0,0,1,6.5-5.7c1.3-.9,2.7-1.6,4.1-2.3l.4,1.6c.8,4.5.8,8.9-1.5,12.9a28.3,28.3,0,0,1-7.6,8.5,38.5,38.5,0,0,1-3.5,2.3,124.8,124.8,0,0,0,7.8,16.7,3.7,3.7,0,0,0,0-.8c-.2-1.5-.4-3.1-.5-4.6a13.8,13.8,0,0,1,1.6-7.9,26.3,26.3,0,0,1,6.2-7.5l2.8-2.3a26.1,26.1,0,0,1,2.2,9.5,14.9,14.9,0,0,1-.8,5.4,31.6,31.6,0,0,1-8.6,12.3c-.4.3-.4.5-.2.9a146.6,146.6,0,0,0,8.4,12.3s-.5,1.1-4.2-1.3L54.7,204c-1.8-2.7-3.4-5.4-5-8.1-.4-.7-.7-.9-1.5-.7a30.5,30.5,0,0,1-14.4-.2,17,17,0,0,1-8.4-5.6c-1-1.1-1.9-2.6-2.8-3.7l-.2-.5.3-.2a29.5,29.5,0,0,1,11.8-1.6c4,.2,7.3,2.1,10.1,4.9a16.6,16.6,0,0,0,2,1.8l-.3-.7a125.9,125.9,0,0,1-6.6-15.6c-.2-.5-.4-.7-1-.7a29.3,29.3,0,0,1-13.8-2.4,16.8,16.8,0,0,1-7.6-7.2c-.9-1.4-1.5-3-2.3-4.7l4.4-.2a25.9,25.9,0,0,1,8.2.9,15.9,15.9,0,0,1,8.4,6.3l1.4,1.9c-1.3-5.9-2.7-11.8-4.1-17.6-2.2-.5-4.5-1-6.7-1.7a21.7,21.7,0,0,1-9.1-5.5,22,22,0,0,1-4.7-10.7h.1a26,26,0,0,1,13.4,3.5c2.5,1.5,4.1,3.9,5.4,6.5l1,1.7a104.1,104.1,0,0,1-.3-17.5,32.5,32.5,0,0,1-8.1-3.6c-3.6-2.3-6.7-5.1-8-9.4a24.8,24.8,0,0,1-1.2-7,5.7,5.7,0,0,1,0-1l6,1.9a19.3,19.3,0,0,1,7,4.6,16.7,16.7,0,0,1,3.4,6.4,25.5,25.5,0,0,0,1.1,3.2V121A124.4,124.4,0,0,1,35,104.2c.1-.5.1-1-.5-1.2a26.1,26.1,0,0,1-10.8-9.4c-1.9-2.8-2.3-6.1-2.3-9.5.1-1.3.2-2.5.3-4,1.7.9,3.2,1.5,4.6,2.4a18.5,18.5,0,0,1,7.4,6.9c1.4,2.3,1.7,5,2,7.7a11.2,11.2,0,0,0,.3,2.5,3.1,3.1,0,0,1,.2-.7,122,122,0,0,1,5.3-16.8c.2-.5.2-.9-.3-1.2a26.5,26.5,0,0,1-8.7-10.3,15.2,15.2,0,0,1-.9-10.2c.2-1.3.6-2.5.9-3.7h.1a27.7,27.7,0,0,1,6.6,5.3,13.9,13.9,0,0,1,4.2,11.2c-.1,1.6-.2,3.3-.4,5.2a1.5,1.5,0,0,0,.3-.5l3.6-7.5a2.1,2.1,0,0,0,.1-1,23.5,23.5,0,0,1,.5-6.7,10.8,10.8,0,0,1,2.4-4.7,21.4,21.4,0,0,1,5.1-3.8,22.5,22.5,0,0,1,3-1.6h.4c-.1.8-.2,1.6-.2,2.4a21.3,21.3,0,0,1-2.2,8.6Z" style="fill:#009fe3"/><path d="M343,63.9c1.7,3.4,4.7,5.2,8,6.6a2.3,2.3,0,0,1,.9.9c1.3,2.8,2.5,5.7,3.7,8.4l1.3,3.3-3.9-4.8a14,14,0,0,0-8.7-5.2,27.1,27.1,0,0,0-11.1.7l-.4.2,2.6,4a16,16,0,0,0,7.3,5.6,29,29,0,0,0,13.3,1l1.3-.3a124.6,124.6,0,0,1,5.2,19.5c-.9-1.3-1.6-2.7-2.4-3.9-1.9-3.2-4.3-5.8-8-7a25.7,25.7,0,0,0-8.6-1.4h-3.1c.5,1.3.9,2.5,1.4,3.6,1.4,3,3.2,5.6,6,7.4A24.2,24.2,0,0,0,359,106l3.9.3a137.2,137.2,0,0,1,2,20.2,2,2,0,0,1-.4-.9l-1.4-3.9a15.3,15.3,0,0,0-8-8.8,32.5,32.5,0,0,0-8.4-2.3l-1.5-.2v.7c.1.6.2,1.4.4,2.1.9,3.9,2.5,7.7,5.9,10.3a28.7,28.7,0,0,0,12.3,5.7l1.4.2a108.4,108.4,0,0,1-1.6,20.6c-.5-2.2-.9-4.4-1.3-6.5a14.3,14.3,0,0,0-4.5-7.7,32.8,32.8,0,0,0-10-5.4l-1.4-.3c.1,2,.1,3.7.3,5.4a15.1,15.1,0,0,0,3.3,8.3,29.1,29.1,0,0,0,12.6,8.6l.5.2a110.9,110.9,0,0,1-5.2,18.5c-.1-1.1,0-2.1-.1-3.2-.1-3.6-.7-7-2.9-9.9a23.7,23.7,0,0,0-6.6-5.7,35.6,35.6,0,0,0-4.1-2.3c-.2.6-.2,1.2-.3,1.6-.8,4.5-.8,8.9,1.5,12.9a28.8,28.8,0,0,0,7.6,8.5c1.2.9,2.3,1.6,3.5,2.3a122.5,122.5,0,0,1-7.9,16.6,3.2,3.2,0,0,1,.1-.8c.2-1.5.4-3.1.5-4.6a14.3,14.3,0,0,0-1.6-7.9,27.1,27.1,0,0,0-6.2-7.4l-2.9-2.3a26.7,26.7,0,0,0-2.2,9.5,13.8,13.8,0,0,0,.8,5.4,31.6,31.6,0,0,0,8.6,12.3c.4.3.4.5.2,1a145.9,145.9,0,0,1-8.4,12.3s.5,1.1,4.2-1.3c.9-1.3,1.8-2.5,2.6-3.8s3.4-5.4,5-8.1c.3-.7.7-.9,1.4-.7A29.5,29.5,0,0,0,365,195a16.9,16.9,0,0,0,8.4-5.6c1-1.1,1.9-2.6,2.8-3.7a2.2,2.2,0,0,1,.3-.5l-.3-.2a29.8,29.8,0,0,0-11.8-1.6c-4,.2-7.2,2.1-10.1,4.9a16.3,16.3,0,0,1-2,1.8l.3-.7a146.4,146.4,0,0,0,6.7-15.6c.2-.5.4-.7.9-.7a29.1,29.1,0,0,0,13.8-2.5,16.3,16.3,0,0,0,7.6-7.2,51.3,51.3,0,0,0,2.3-4.7l-4.4-.2a26.9,26.9,0,0,0-8.1.8,15.9,15.9,0,0,0-8.4,6.3,19.5,19.5,0,0,0-1.4,2l4.1-17.6c2.2-.5,4.5-1,6.7-1.7a21.7,21.7,0,0,0,9.1-5.5,22,22,0,0,0,4.7-10.7h-.1a25,25,0,0,0-13.4,3.5c-2.5,1.5-4.1,3.9-5.4,6.5l-1,1.7a104.1,104.1,0,0,0,.3-17.5,31,31,0,0,0,8.1-3.6c3.6-2.4,6.7-5.1,8-9.4a24.8,24.8,0,0,0,1.2-7,5.7,5.7,0,0,0,0-1c-2.1.8-4.1,1.3-6,1.9a20.2,20.2,0,0,0-7.1,4.6,16.8,16.8,0,0,0-3.4,6.4,33.4,33.4,0,0,1-1,3.2c0-.3-.1-.4-.1-.8a144.5,144.5,0,0,0-2.4-16.7c-.1-.5-.1-1,.6-1.2a26.4,26.4,0,0,0,10.8-9.4c1.9-2.9,2.3-6.1,2.3-9.5a34.4,34.4,0,0,0-.3-3.9c-1.6.9-3.2,1.5-4.6,2.4a19.1,19.1,0,0,0-7.5,6.9,17.8,17.8,0,0,0-1.9,7.7,16.6,16.6,0,0,1-.3,2.5l-.2-.7a131.8,131.8,0,0,0-5.3-16.8c-.2-.5-.2-.9.3-1.2a26.8,26.8,0,0,0,8.7-10.3,15.2,15.2,0,0,0,.9-10.2c-.2-1.2-.5-2.4-.9-3.7h-.1a28.8,28.8,0,0,0-6.6,5.3,14.1,14.1,0,0,0-4.2,11.2c.1,1.6.3,3.3.4,5.3l-.2-.5-3.6-7.4a3.1,3.1,0,0,1-.1-1,21.8,21.8,0,0,0-.5-6.7,10.1,10.1,0,0,0-2.3-4.7,20.4,20.4,0,0,0-5.1-3.8,22.5,22.5,0,0,0-3-1.6h-.4c.1.8.2,1.6.3,2.4a20.4,20.4,0,0,0,2.2,8.6Z" style="fill:#009fe3"/></svg>