<svg id="Layer_1" data-name="Layer 1" xmlns="http://www.w3.org/2000/svg" viewBox="0 0 400 260"><title>Bookingvalue 4</title><path d="M320.4,151.3a2.3,2.3,0,0,1,0-4.7h55.9L317.8,49,293,96.7a2.3,2.3,0,1,1-4.1-2.1l26.7-51.3a2.3,2.3,0,0,1,2-1.3,2.2,2.2,0,0,1,2.1,1.1l62.8,104.7a2.3,2.3,0,0,1-2,3.5h-60" style="fill:#009fe3"/><path d="M324.7,172.6H220.8a2.1,2.1,0,0,1-1.8-3.2l56.9-94.9a2,2,0,0,1,1.9-1,2.1,2.1,0,0,1,1.8,1.1l47.1,94.5a2.1,2.1,0,1,1-3.7,1.9L277.6,80l-53.1,88.4H325.7c2.1,1.9.8,4.2-1,4.2" style="fill:#009fe3"/><path d="M313,90.8h-.1a2.3,2.3,0,0,1-2.1-1.5l-3.7-9.3-8.1,4a2.3,2.3,0,0,1-2.1-4.2l10.3-5.2a2.3,2.3,0,0,1,3.2,1.2l2.7,6.8,4.7-9.3a2.3,2.3,0,0,1,3.7-.6l4.6,4.6,4-9.3a2.3,2.3,0,0,1,4.3,1.8l-5.3,12.4a2.3,2.3,0,0,1-3.8.7l-4.7-4.7-5.5,11.1a2.3,2.3,0,0,1-2.1,1.3" style="fill:#009fe3"/><path d="M265.1,114.6h-.5a2.3,2.3,0,0,1-1.7-1.5l-2.4-6.4a2.3,2.3,0,1,1,4.4-1.6l1.1,3,4.4-4.4a2.3,2.3,0,0,1,3.3,0l4.8,4.8L284,99a2.3,2.3,0,0,1,4,2.3l-7,12.2a2.3,2.3,0,0,1-1.7,1.2,2.3,2.3,0,0,1-2-.7l-5.3-5.3-5.3,5.3a2.3,2.3,0,0,1-1.6.7" style="fill:#009fe3"/><path d="M317.4,47.8a2.3,2.3,0,0,1-2.3-2.3V15.2a2.3,2.3,0,1,1,4.7,0V45.4a2.3,2.3,0,0,1-2.3,2.3" style="fill:#009fe3"/><path d="M319.8,26.8h14V17.5h-14Zm16.3,4.7H317.4a2.3,2.3,0,0,1-2.3-2.3v-14a2.3,2.3,0,0,1,2.3-2.3h18.6a2.3,2.3,0,0,1,2.3,2.3v14A2.3,2.3,0,0,1,336.1,31.5Z" style="fill:#009fe3"/><path d="M277.8,78.5a2.3,2.3,0,0,1-2.3-2.3V46a2.3,2.3,0,1,1,4.7,0V76.2a2.3,2.3,0,0,1-2.3,2.3" style="fill:#009fe3"/><path d="M280.1,57.6h14V48.3h-14Zm16.3,4.7H277.8a2.3,2.3,0,0,1-2.3-2.3V46a2.3,2.3,0,0,1,2.3-2.3h18.6a2.3,2.3,0,0,1,2.3,2.3v14A2.3,2.3,0,0,1,296.4,62.2Z" style="fill:#009fe3"/><path d="M16,92.4l-.5-1.6h.9l5.4-.9V83.9H15.5V82.5h6.3V77.6l-2,.2-3.1.3-.3-1.1v-.3q5.7-.6,11.3-1.5l.5,1.4-1.1.2-3.5.6v5.1h8q-.2-4.1-.2-8.6h1.6q0,4.5.2,8.6H43.2v1.4H33.1q.1.8.2,2.4a9.6,9.6,0,0,1,.2,1.7,34.3,34.3,0,0,0,.8,4.3,35.7,35.7,0,0,0,5.4-6.1l1.4.9a35.7,35.7,0,0,1-6.3,6.8,11.7,11.7,0,0,0,1.1,2.6q1.4,2.7,3.2,2.7t1.7-1.6a16.3,16.3,0,0,0,.8-3.7l.5.2,1,.3a28.8,28.8,0,0,1-.9,3.9,3,3,0,0,1-3.1,2.5q-2.7.1-4.6-3.7a8.3,8.3,0,0,1-.9-2,37.1,37.1,0,0,1-7.1,4.2,5.1,5.1,0,0,0-1-1.2A29.3,29.3,0,0,0,33,93.4a33.5,33.5,0,0,1-1-5.2c0-.3,0-.8-.1-1.5a24,24,0,0,1-.2-2.8H23.5v5.6l4-.8,1.7-.3v1.5l-2.5.6-3.2.6v6.6q.1,2.8-2.8,2.9H17.3a8.4,8.4,0,0,0-.3-1.6h3.1q1.9.1,1.8-1.5V91.2l-1.5.2ZM35,76.6l1.1-1q2.2,1.7,4.6,4.1l-1.1,1-1.1-1Z" style="fill:#009fe3"/><path d="M49.6,89.3l-.3-.9-.3-.9a46.6,46.6,0,0,0,6.2-13.3l1.6.6q-1.1,3.2-2.5,6.1V101H52.7V84A58.1,58.1,0,0,1,49.6,89.3Zm9.5,11.3V80.6h1.5v20.1Zm.3-25.5,1.2-.8,1.9,2.3,1.6,1.8-1.4.9-.7-.9ZM74.9,96.9q.1,3.7-3.6,3.7H67.2a17.2,17.2,0,0,0-.3-1.7h3.9q2.9.1,2.7-2.3V78H66V76.4h8.9Z" style="fill:#009fe3"/><path d="M82.8,85.7h3.9V77.9H82.6V76.5h9.5v1.4H88.2v7.8h3.4V87H88.2v8.4l1.1-.2,3.2-.8a10.3,10.3,0,0,0,.1,1.5l-4.2.9L82.7,98l-.5-1.5,1.9-.3,2.5-.5V87H82.8ZM108.7,84a20.3,20.3,0,0,1-8.3-7.6,23,23,0,0,1-8,7.6l-1.1-1.2q6.5-3.6,8.8-8.9l1.7.2-.2.5-.3.6a20.8,20.8,0,0,0,8.5,7.6l-.7.9ZM91.9,99.6a31,31,0,0,0,15.4-8.7l1.2,1A36.5,36.5,0,0,1,92.8,101a3.9,3.9,0,0,0-.7-1Zm1-11.9a25,25,0,0,0,8.4-5.9l1.1.9a28.7,28.7,0,0,1-8.5,6.3l-.7-.9Zm1.5,7-.9-1.4a30,30,0,0,0,10.9-7.1l1.2,1A35.6,35.6,0,0,1,94.4,94.7Z" style="fill:#009fe3"/><path d="M116.2,81.3V79.8h8.2v1.6a32.8,32.8,0,0,1-2.9,4.8V101h-1.6V88.1a31.2,31.2,0,0,1-3.5,3.6l-.5-1.1-.2-.6a27.9,27.9,0,0,0,7.1-8.7Zm2.5-6.5,1.4-.7,1.2,2.2,1.2,2.3-1.5.7A47,47,0,0,0,118.6,74.8ZM122,87.7l1-.9,2.2,2.3,1,1.1-1.2,1Zm11.2-8.4h1.5q0,4.9-.2,7-.1,10.1-10,14.6l-1.2-1.2q9.9-4.4,9.7-13.4Q133.3,82.8,133.3,79.3Zm-6-4.1h13.6V91.6h-1.5V76.7H128.8V92h-1.6Zm7.1,14.8h1.5v6.7q-.1,2,2,1.9h1.2a1.9,1.9,0,0,0,2.2-1.6,20.3,20.3,0,0,0,.3-3.5l1.5.6a16.2,16.2,0,0,1-.3,3.2q-.3,2.8-3.6,2.7h-1.6q-3.2.1-3.2-3.2Z" style="fill:#009fe3"/><path d="M42.7,125.8H39.4v5.9H35v-5.9H31.5a11,11,0,0,1-2.4,6.6H43.3a39.4,39.4,0,0,0-1.4,4.2H33.1l-6-.2q-4.4-.1-6.3-2.7a29,29,0,0,0-3.5,3.6l-1.9-4.8,2.9-2.6v-6.5H15.7v-4.4h7.1v10.8q1.6,2.6,5.3,2.7l-3.3-2.2a8.6,8.6,0,0,0,2.3-4.4H23.7v-4h3.5v-3.6H24.6v-4.1h2.6v-4.2h4.4v4.2H35v-4.2h4.4v4.2H42v4.1H39.4v3.6h3.3ZM20.3,109.7q2.2,3.1,3.9,5.8l-4.1,2.2-.9-1.6-2.6-4.3Zm11.3,8.5v3.6H35v-3.6Z" style="fill:#009fe3"/><path d="M70.9,123.9l3.9,2.3q-6.1,9.2-24.2,10.8a17.3,17.3,0,0,0-1.6-3.9q10.2-.8,15-3.3H61v-6.5h4.5V129A21.3,21.3,0,0,0,70.9,123.9Zm3.4-11.4v4H65.9v2.3H76.4v4.1H49v-4.1h3.9v-6.9h4.4v6.9h4.1v-8.9h4.5v2.7Zm-18.1,11,2.9,2.9a60.3,60.3,0,0,1-7.1,5.3l-2.5-3.4A40.8,40.8,0,0,0,56.1,123.5Z" style="fill:#009fe3"/><path d="M108.9,130.8q0,5.4-5,5.6H98.7a12,12,0,0,1-.2-1.4q-.2-1.4-.7-3.1h4.1q2.5.2,2.5-2.4v-4.8q.1-4.8.1-6.7h-4a29.4,29.4,0,0,1-1.6,3.5L95.4,120v16.4H91v-1.6H87.7v1.7H83.3V114.1h3.2a33.9,33.9,0,0,0,.8-4.2l5,.6-.2.9a24.2,24.2,0,0,1-.7,2.7h4.1v4.8a57,57,0,0,0,3.4-9.1l4.5,1a14.3,14.3,0,0,1-.5,1.6l-.6,1.7h6.9Q109,126.5,108.9,130.8ZM87.7,118.4v4H91v-4Zm0,8.3v4H91v-4Zm12.2-5.2,2.9,3.9,1.2,1.7-3.9,2.5q-2.4-3.6-4-5.8Z" style="fill:#009fe3"/><path d="M118.9,109.8h4.2v5h2.7v4h-2.7v2.7l.6-.6a40.2,40.2,0,0,1,3.3,2.9V110.9h11.8v20.6q0,.8.5.7t.6-.8a20.7,20.7,0,0,0,.1-2.7q.1-1.8.1-2.8l3.2.7q-.1,2.2-.3,5.2c-.1.7-.1,1.2-.1,1.5a3.1,3.1,0,0,1-3.3,2.9h-1.7q-3.3,0-3.3-3.7V115.1h-3.1v6.5q.2,9.7-4,15.6a47.5,47.5,0,0,0-3.6-3.3,15.5,15.5,0,0,0,3.2-9.2l-2.3,2.5-.8-.9a3.4,3.4,0,0,0-.8-.9V137h-4.2v-9.7a31.6,31.6,0,0,1-2.5,4.3q-.2-2.8-.8-6.3a19.1,19.1,0,0,0,3.2-6.5H116v-4h2.8Z" style="fill:#009fe3"/><path d="M151.3,123.1l-.5-.8a23.7,23.7,0,0,0-2-3.2q8.4-4.1,11.8-9.4l5.6.2-.2.5-.3.6a25.3,25.3,0,0,0,11,7.7l-2.4,4.2-4.2-2.4v2.3H155.4v-2Zm-1.7,1.7h26.2v4.1h-6.3l5.6,5.3-3.6,2.9-1.4-1.7h-3.2l-8.8.3-4.1.5h-.5l-1.9-3.9a15.2,15.2,0,0,0,4.4-3.7h-6.3ZM163,114.4a39.3,39.3,0,0,1-4.6,4.3h9.1A25.6,25.6,0,0,1,163,114.4Zm-4.6,17.8h8.5l-1.7-2.2,1.5-1h-5.3a19.1,19.1,0,0,1-1.9,2.2Z" style="fill:#009fe3"/><path d="M196.5,128.6l-1-1.4q2.8-1.8,2.7-4.4h-2.3v-4.2h4.2v3.7A6.6,6.6,0,0,1,196.5,128.6Z" style="fill:#009fe3"/><path d="M28.6,161.4h1.6v2.8H40.3v1.4H30.2v4.5H43v1.4H15.8v-1.4H28.6v-4.5H18.3v-1.4H28.6ZM17.8,147.5h1.5v13H17.8Zm6-1.1h1.5v14.8H23.8Zm3.5,3.1V148H40.9v1.4a18.2,18.2,0,0,1-5.2,7,20.4,20.4,0,0,0,7.1,2.9v.2l-.7,1.2a24.9,24.9,0,0,1-7.6-3.4,37.1,37.1,0,0,1-7.1,3.4,6,6,0,0,0-.9-1.5,29.7,29.7,0,0,0,6.7-2.9,16.3,16.3,0,0,1-4.3-7Zm12,0H30.4a14.5,14.5,0,0,0,4.1,6.1A17.6,17.6,0,0,0,39.3,149.4Z" style="fill:#009fe3"/><path d="M49.7,161l-.7-1.6A45.3,45.3,0,0,0,55.1,146l1.5.5a49.2,49.2,0,0,1-2.5,6.6V173H52.6V156.1A55.5,55.5,0,0,1,49.7,161ZM65,146.5l1.5-.6,1.4,2.8.2.6-1.2.5h9.6v1.5H57v-1.5h9.5v-.3Zm-6.3,7.9H74.7v1.4H58.6Zm0,4.5H74.7v1.5H58.6Zm.3,4.6H74.4V173H72.9v-1.7H60.4V173H59Zm1.5,1.4v5H72.9v-5Z" style="fill:#009fe3"/><path d="M98,145.9h1.5q0,1,.1,2.8a25.1,25.1,0,0,0,.1,2.8h9.9V153H99.8a57,57,0,0,0,1.6,11.6,41.6,41.6,0,0,0,4.8-8.5l1.5.7a40.4,40.4,0,0,1-5.7,9.5q1.7,5,3.9,5t1.8-1.7a21.2,21.2,0,0,0,.7-3.6l.5.2,1,.3a22.6,22.6,0,0,1-.8,3.5q-.9,2.8-3.2,2.7t-5-5.1a37.8,37.8,0,0,1-5.4,4.8l-1.1-1.2a26.9,26.9,0,0,0,6-5.2q-1.6-4.3-2-12.9H86.9v4.8h8q0,3.3-.3,7.8t-3.7,4H88.4q-.1-.8-.3-1.7h2.6a2.1,2.1,0,0,0,2.5-2.4,9.3,9.3,0,0,1,.1-1.2q.1-3.2.1-5.2H86.9a37.2,37.2,0,0,1-.8,7.9,19.7,19.7,0,0,1-2.6,5.8l-.6-.5-.7-.6a15.1,15.1,0,0,0,2.5-5.7,43.4,43.4,0,0,0,.6-8.6v-6.1H98.1V149Q98,146.9,98,145.9Zm4,1.8.9-1,4.3,2.8-1,1.1-.8-.6Z" style="fill:#009fe3"/><path d="M116.2,168l-.5-1.6,5-1.2V151h-4.8v-1.5h10.6V151h-4.3v13.7l4.3-1.1a9.4,9.4,0,0,0,.2,1.6Zm11-16.1h4q.1-2,.1-5.8h1.6q0,3.9-.1,5.8h9.1q-.2,9.7-.6,16.1,0,4.4-4.6,4.3h-4.1l-.2-1.1a1.8,1.8,0,0,1-.1-.6h4.3q3.2.1,3.2-2.7.3-5.1.6-14.7h-7.6v1.4a11.9,11.9,0,0,0-.1,1.4q-.5,11.6-8.6,16.9l-.8-.8-.6-.5q8-4.5,8.4-15.7v-1a15.7,15.7,0,0,0,.1-1.6h-3.9Z" style="fill:#009fe3"/><path d="M160,168.9l-1.1,1a29.5,29.5,0,0,1-3.4-2.9,25.8,25.8,0,0,1-5.6,5.7l-1-1.2a23.1,23.1,0,0,0,5.4-5.4l-2-1.8-2.2-1.8q1.1-4.2,1.9-8.8h-3.1V152h3.3q.1-1.1.5-3.3l.3-2.7,1.6.2q-.3,3.1-.9,5.8h5.3v1.5q-.6,8.4-2.8,12.1l3.4,2.9Zm-2.4-15.4h-4.1q-1,4.9-1.8,8.4l3.3,2.7Q157.1,161,157.7,153.5Zm4.9,2.3,4.1-.2,6.3-.2-.9-1.5-1.8-2.9,1.2-.8a87.4,87.4,0,0,1,4.9,7.9l-1.4.9a20.3,20.3,0,0,0-1.2-2.2l-8,.2h-4.8l-.9-1.5a7.7,7.7,0,0,0,1.9-1.9,58,58,0,0,0,4.8-8l1.6.6Q165.2,151.7,162.5,155.7Zm-1,5.3h12.9V173h-1.6V171h-9.7V173h-1.6Zm1.6,1.4v7.3h9.7v-7.2Z" style="fill:#009fe3"/><path d="M184.8,148h22.8v1.5H197.4v8h12.3v1.6H197.4v9.5q.1,3.8-3.7,3.9h-4.1a17.2,17.2,0,0,0-.3-1.7h3.7q2.9.2,2.7-2.4v-9.3H182.5v-1.6h13.1v-8H184.8Z" style="fill:#009fe3"/><path d="M31.6,199.6a9.4,9.4,0,0,1-.1,1.1v1.2a.7.7,0,0,1-.1.5l5.7,1.6,5.7,1.6-2,3.7q-7.6-2.7-11.1-3.6-2.5,2.4-11.6,3.5a26.6,26.6,0,0,0-2.2-3.7q11.4-.6,11.1-4.1a6.6,6.6,0,0,0,.2-1.8Zm11.1-4.6H16v-3.2H27.1v-1H18.1v-2.9h8.9v-1H17v-3.2H27.1v-1.8h4.5v1.8h10v3.2h-10v1h9.1v2.9H31.6v1H42.7Zm-24.1,8.6v-7.7H40.1v7.6H35.7V199H23v4.5Z" style="fill:#009fe3"/><path d="M56.6,209H52.1V196.6a21.7,21.7,0,0,1-2.3,2.9l-.3-1.9q-.5-2.4-.7-3.9a44.6,44.6,0,0,0,5.1-12l4.8,1.1a37.8,37.8,0,0,1-2,5.6Zm1.2-15.5h7v-5.1H59.4l-.3-2.3q-.3-1.5-.5-2.2,10.3-.5,16.4-1l.9,4.3-3.3.3-3.1.2v5.4h6.8V198H69.6v5.7h6.1v4.1H58.5v-4.1h6.3V198h-7Z" style="fill:#009fe3"/><path d="M82.2,206q1.4-2.6,2.5-5.3l-2-1.5a18.3,18.3,0,0,0,1.8-8.7v-6.2H98.4v-1.1a11.8,11.8,0,0,1-.1-1.4h4.1q0,1.4.1,2.5h1.9l-1.2-1.4,2.7-1.5,2.3,2.2-1.2.7h2.6v3.5h-6.9a24.9,24.9,0,0,0,.5,4,24.9,24.9,0,0,0,2.6-3.7l3.4,1.9a29.9,29.9,0,0,1-4.6,5.9l.2.3.2.3q.3.7.8.7c.3-.1.5-.3.6-.8l.3-1.5a7,7,0,0,1,.2-1.1l.8.3,2.5.9-.2,1.1-.7,2.4A4.1,4.1,0,0,1,107,201l2.7,4.1.2.3-3.7,1.8-1.2-2.2-.9-1.4a13.7,13.7,0,0,1-.7,2.4q-.9,2.5-4.4,2.4H92.2q-3.6.1-3.5-3.6v-3.4a59,59,0,0,1-2.8,6.2Zm11.3-4.9,2.8-1.7H89.1v-6.9H98v3.7l1.8-1.2a33.1,33.1,0,0,1-1.1-7.2H88.5v2.7a23,23,0,0,1-1.9,10.2l2.2.8v-.9h4.4v3.1q-.1,1.7,1.5,1.6h3.2q1.8.1,1.9-1.4t.6-2.2l3.4,1.2-.2-.5-.2-.3,1.8-.9a5.6,5.6,0,0,1-3.6-2.6l-.8.6-1.1.9-.7-1.4a12.8,12.8,0,0,0-.8-1.7v2.4h-.7l1,1.2,1.4,1.7-3.6,2.3Zm4.5-9.6H89v-2.8h9.1Zm-3.5,5.2v-1.5H92.4v1.5Z" style="fill:#009fe3"/><path d="M116,190.5h5.3v-5l-4.8.3a6.2,6.2,0,0,0-.3-1.5l10.9-.9.5,1.5-2.4.2-2.4.2v5.1H128v1.4h-5.2v4.1l.8-.7,2.8,2.6,1.5,1.4-1.1,1.1a49.6,49.6,0,0,0-4-4v12.5h-1.5V194.7a29.8,29.8,0,0,1-5,8.9l-.8-1.7a31.2,31.2,0,0,0,5.7-10.1H116Zm14-5.2h11.8v22.9h-1.6v-2.6h-8.7v2.6h-1.5Zm1.5,1.5v17.4h8.7V186.8Z" style="fill:#009fe3"/><path d="M158.9,181.8l5.7.3-.7,2a3.6,3.6,0,0,1-.2.8h10.6v23.9h-4.8v-1.6H156v1.6h-4.8V185h7A15.1,15.1,0,0,0,158.9,181.8Zm10.6,7.1H156v2.5h13.6ZM156,195v2.4h13.6V195Zm0,6v2.5h13.6V201Z" style="fill:#009fe3"/><path d="M185.6,195h8.2V191h-9.6v-4.4h10.1l-.7-2-.8-1.9,5.1-.9q.6,1.8,1.5,4.2l-3.6.7h12.6V191h-9.6V195h8.2v4.4h-8.2v4.2h10.6v4.3H182.9v-4.3h10.9v-4.2h-8.2Z" style="fill:#009fe3"/><path d="M215.5,206.5a26,26,0,0,0,2.3-5.2l3.9,1.4-2.5,5.4Zm1.9-19.8v-3.1h9.4a8.3,8.3,0,0,0-.7-1.6l5.8-.2.6,1.8h8.9v3.1h-4.1l-.5.7-.3.7h6.3V191H216V188h6.1a5.6,5.6,0,0,0-.7-1.4Zm.8,5.3h22.4v9.3H231l1.7,2-3.2,2-1.2-1.7-1.1-1.5,1.4-.9H218.2Zm14.8,12.1.5-1.8,3.3,1.2.7.2a6.2,6.2,0,0,1-.6-1.2l4-1.1q1.6,3.4,2.4,4.9l-4.1,1.5-.3-.9-1.2-2.7a5.8,5.8,0,0,1-.6,1.6l-.2.7q-.8,2.4-4.4,2.3h-6.9q-3.6,0-3.6-3.5v-3.2h4.4v1.9q-.1,1.7,1.6,1.6h3.3Q232.9,205.6,233.1,204.1Zm-10.4-9.5v1h13.6v-1Zm13.6,4.1v-1H222.7v1ZM231.7,188l.7-1.4h-6l.7,1.4Z" style="fill:#009fe3"/><path d="M257.8,198.4a25,25,0,0,0,1.1,4.3l-2,1.8-2,1.7-1.8,1.9-2.8-3.2a4.4,4.4,0,0,0,1.1-3.1v-7h-2.2v-4.3h6.6v9.7l.9-.9Zm-4.4-16.7,4,5.4-4.1,2.6-.7-1.1q-1.8-2.9-3.1-4.6Zm3.2,24.2a45.1,45.1,0,0,0,6-6.8l4,2.4a91.9,91.9,0,0,1-6.3,7.4Zm2.2-7.4V183.4H275v15.3Zm4.6-4.2h7v-6.9h-7Zm7.7,4.8q2.5,2.7,5.9,6.9l-4.1,2.7a86.9,86.9,0,0,0-5.6-7.2Z" style="fill:#009fe3"/><circle cx="18.2" cy="231.3" r="3.3" style="fill:#009fe3"/><circle cx="39" cy="231.3" r="3.3" style="fill:#009fe3"/><circle cx="59.7" cy="231.3" r="3.3" style="fill:#009fe3"/><circle cx="80.5" cy="231.3" r="3.3" style="fill:#009fe3"/><circle cx="101.2" cy="231.3" r="3.3" style="fill:#009fe3"/><circle cx="122" cy="231.3" r="3.3" style="fill:#009fe3"/><circle cx="142.8" cy="231.3" r="3.3" style="fill:#009fe3"/><circle cx="163.5" cy="231.3" r="3.3" style="fill:#009fe3"/><circle cx="184.3" cy="231.3" r="3.3" style="fill:#009fe3"/><circle cx="205" cy="231.3" r="3.3" style="fill:#009fe3"/><circle cx="225.8" cy="231.3" r="3.3" style="fill:#009fe3"/><circle cx="246.6" cy="231.3" r="3.3" style="fill:#009fe3"/><circle cx="267.3" cy="231.3" r="3.3" style="fill:#009fe3"/><circle cx="288.1" cy="231.3" r="3.3" style="fill:#009fe3"/><circle cx="308.8" cy="231.3" r="3.3" style="fill:#009fe3"/><circle cx="329.6" cy="231.3" r="3.3" style="fill:#009fe3"/><circle cx="350.4" cy="231.3" r="3.3" style="fill:#009fe3"/><circle cx="371.1" cy="231.3" r="3.3" style="fill:#009fe3"/><circle cx="19.2" cy="53.9" r="3.3" style="fill:#009fe3"/><circle cx="39.9" cy="53.9" r="3.3" style="fill:#009fe3"/><circle cx="60.7" cy="53.9" r="3.3" style="fill:#009fe3"/><circle cx="81.5" cy="53.9" r="3.3" style="fill:#009fe3"/><circle cx="102.2" cy="53.9" r="3.3" style="fill:#009fe3"/><circle cx="123" cy="53.9" r="3.3" style="fill:#009fe3"/><circle cx="143.8" cy="53.9" r="3.3" style="fill:#009fe3"/><circle cx="164.5" cy="53.9" r="3.3" style="fill:#009fe3"/><circle cx="185.3" cy="53.9" r="3.3" style="fill:#009fe3"/><circle cx="206" cy="53.9" r="3.3" style="fill:#009fe3"/><circle cx="226.8" cy="53.9" r="3.3" style="fill:#009fe3"/></svg>