<svg id="Layer_1" data-name="Layer 1" xmlns="http://www.w3.org/2000/svg" viewBox="0 0 400 260"><title>Bookingvalue 5</title><rect x="44.9" y="42.8" width="76.2" height="1.5" style="fill:#009fe3"/><rect x="279.4" y="42.8" width="77.2" height="1.5" style="fill:#009fe3"/><path d="M40.6,35.6a1.4,1.4,0,0,1,.7,1.4,1.7,1.7,0,0,1-1.1,1.5,2.3,2.3,0,0,1-1.7,0,2.8,2.8,0,0,1-1.3-3.6A3.1,3.1,0,0,1,39.2,33l1.3-.2a4.1,4.1,0,0,1,1.7.4,3.7,3.7,0,0,1,1.8,1.9,4.7,4.7,0,0,1,.2,2.9A4.7,4.7,0,0,1,42,41a9.4,9.4,0,0,1-4.8,1.2H24.6a1.3,1.3,0,0,0-1.3-.7,1.5,1.5,0,0,0,0,3,1.3,1.3,0,0,0,1.3-.7H37.1A9.4,9.4,0,0,1,42,44.9a4.7,4.7,0,0,1,2.3,3,4.7,4.7,0,0,1-.2,2.9,3.7,3.7,0,0,1-1.8,1.9,4.1,4.1,0,0,1-1.7.4l-1.3-.2A3.1,3.1,0,0,1,37.1,51a2.8,2.8,0,0,1,1.3-3.6,2.3,2.3,0,0,1,1.7,0,1.7,1.7,0,0,1,1.1,1.5,1.4,1.4,0,0,1-.7,1.4v-.2a1.5,1.5,0,0,0-3,0,2,2,0,0,0,1.3,1.7,2.8,2.8,0,0,0,2.1,0,2.9,2.9,0,0,0,1.8-2.9A3.3,3.3,0,0,0,41,46.1a3.9,3.9,0,0,0-3.1-.1,3.9,3.9,0,0,0-2.4,3c-.8-1.4-1.5-2.7-3.2-3.2a4,4,0,0,0-1.9-.1,3.2,3.2,0,0,0-1.6.9,2.9,2.9,0,0,0-.8,1.9,3.1,3.1,0,0,0,.3,1.5,2.6,2.6,0,0,0,1.1,1.1A2.5,2.5,0,0,0,32,51a1.5,1.5,0,1,0-2.4-1.6,1.5,1.5,0,0,1-.1-.7,1.4,1.4,0,0,1,.4-.9,1.6,1.6,0,0,1,.8-.5h1.2c2.3.6,2.6,5,5.9,6.7a6.2,6.2,0,0,0,2.9.6A5.7,5.7,0,0,0,43,54a5.3,5.3,0,0,0,2.5-2.7,6.3,6.3,0,0,0-2.7-7.8l-1.2-.6,1.2-.6a6.2,6.2,0,0,0,3-4,6.3,6.3,0,0,0-.3-3.9A5.3,5.3,0,0,0,43,31.8a5.7,5.7,0,0,0-2.4-.6,6.2,6.2,0,0,0-2.9.6c-3.3,1.7-3.6,6-5.9,6.7H30.6a1.6,1.6,0,0,1-.8-.5,1.4,1.4,0,0,1-.4-.9,1.5,1.5,0,0,1,.1-.7A1.5,1.5,0,1,0,32,34.9a2.5,2.5,0,0,0-2.7-.2,2.6,2.6,0,0,0-1.1,1.1,3.1,3.1,0,0,0-.3,1.5,2.9,2.9,0,0,0,.8,1.9,3.2,3.2,0,0,0,1.6.9,4,4,0,0,0,1.9-.1c1.7-.5,2.4-1.8,3.2-3.2a3.9,3.9,0,0,0,2.4,3,3.9,3.9,0,0,0,3.1-.1A3.3,3.3,0,0,0,42.8,37,2.9,2.9,0,0,0,41,34.1a2.8,2.8,0,0,0-2.1,0,2,2,0,0,0-1.3,1.7,1.5,1.5,0,1,0,3,0v-.2Zm321,0a1.4,1.4,0,0,0-.7,1.4,1.7,1.7,0,0,0,1.1,1.5,2.3,2.3,0,0,0,1.7,0,2.8,2.8,0,0,0,1.3-3.6,3.1,3.1,0,0,0-2.1-1.9l-1.3-.2a4.1,4.1,0,0,0-1.7.4,3.7,3.7,0,0,0-1.8,1.9,4.8,4.8,0,0,0,2.1,5.9,9.4,9.4,0,0,0,4.8,1.2h12.5a1.3,1.3,0,0,1,1.3-.7,1.5,1.5,0,1,1,0,3,1.3,1.3,0,0,1-1.3-.7H365a9.4,9.4,0,0,0-4.8,1.2,4.8,4.8,0,0,0-2.1,5.9,3.7,3.7,0,0,0,1.8,1.9,4.1,4.1,0,0,0,1.7.4l1.3-.2A3.1,3.1,0,0,0,365,51a2.8,2.8,0,0,0-1.3-3.6,2.3,2.3,0,0,0-1.7,0,1.7,1.7,0,0,0-1.1,1.5,1.4,1.4,0,0,0,.7,1.4v-.2a1.5,1.5,0,0,1,3,0,2,2,0,0,1-1.3,1.7,2.8,2.8,0,0,1-2.1,0,2.9,2.9,0,0,1-1.8-2.9,3.3,3.3,0,0,1,1.9-2.8,3.9,3.9,0,0,1,3.1-.1,3.9,3.9,0,0,1,2.4,3c.8-1.4,1.5-2.7,3.2-3.2a4,4,0,0,1,1.9-.1,3.2,3.2,0,0,1,1.6.9,2.9,2.9,0,0,1,.8,1.9,3.1,3.1,0,0,1-.3,1.5,2.6,2.6,0,0,1-1.1,1.1,2.5,2.5,0,0,1-2.7-.2,1.5,1.5,0,1,1,2.4-1.6,1.5,1.5,0,0,0,.1-.7,1.4,1.4,0,0,0-.4-.9,1.6,1.6,0,0,0-.8-.5h-1.2c-2.3.6-2.6,5-5.9,6.7a6.2,6.2,0,0,1-2.9.6,5.7,5.7,0,0,1-2.4-.6,5.3,5.3,0,0,1-2.5-2.7,6.3,6.3,0,0,1-.3-3.9,6.2,6.2,0,0,1,3-4l1.2-.6-1.2-.6a6.2,6.2,0,0,1-3-4,6.3,6.3,0,0,1,.3-3.9,5.3,5.3,0,0,1,2.5-2.7,5.7,5.7,0,0,1,2.4-.6,6.2,6.2,0,0,1,2.9.6c3.3,1.7,3.6,6,5.9,6.7h1.2a1.6,1.6,0,0,0,.8-.5,1.4,1.4,0,0,0,.4-.9,1.5,1.5,0,0,0-.1-.7,1.5,1.5,0,1,1-2.4-1.6,2.5,2.5,0,0,1,2.7-.2,2.6,2.6,0,0,1,1.1,1.1,3.1,3.1,0,0,1,.3,1.5,2.9,2.9,0,0,1-.8,1.9,3.2,3.2,0,0,1-1.6.9,4,4,0,0,1-1.9-.1c-1.7-.5-2.4-1.8-3.2-3.2a3.9,3.9,0,0,1-2.4,3,3.9,3.9,0,0,1-3.1-.1,3.3,3.3,0,0,1-1.9-2.8,2.9,2.9,0,0,1,1.8-2.9,2.8,2.8,0,0,1,2.1,0,2,2,0,0,1,1.3,1.7,1.5,1.5,0,1,1-3,0Z" style="fill:#009fe3"/><path d="M234.3,116.1l4.6-4.9,3.9,3.9,2.2-1.9a7.5,7.5,0,0,0,0-10.3l-7.3-7.3a7.5,7.5,0,0,0-10.3,0l-2,2,3.9,3.9-4.8,4.8a48.6,48.6,0,0,0-63.8,4.8c-17.9,18.2-18.4,48.2-1.1,66.8a48.7,48.7,0,0,0,70.1,1.5,47.9,47.9,0,0,0,4.6-63.3Zm-67.3.6a40.2,40.2,0,0,1,68.5,24.9c-16.7-5.9-63.3-5.6-80.1.8A39.3,39.3,0,0,1,167,116.7Z" style="fill:#009fe3"/><path d="M251,122.9a58.9,58.9,0,0,1-69.3,79.2l2.9-5.1-18.1.8,8.5,15.9,2.9-5.1a66.3,66.3,0,0,0,78.1-92.6Z" style="fill:#009fe3"/><path d="M211.8,80.4A66.3,66.3,0,0,0,151,193.3l3.7-6.6a58.9,58.9,0,0,1,53.3-99.4l-2.8,4.3,18.1-.8-8.5-15.9Z" style="fill:#009fe3"/><path d="M134.9,34.8a6.3,6.3,0,0,0-.2-1.4,8.2,8.2,0,0,0-.2-1.4q4.3-.2,11.4-1.1l.6,2.7-1.7.2-2.4.2V38h6.1q-.2-6.1-.2-8.2h3.1q0,2.3.2,8.2h9.5v2.8h-9.3v1q.2,3.2.6,5.2a29.7,29.7,0,0,0,4.8-5.4l2.5,1.9a50.1,50.1,0,0,1-6.3,6.7,2.5,2.5,0,0,1,.5.8l.5.9q1,1.8,2.3,1.8t1.2-1.2.7-3.3v-.6l2.6,1.2a14.1,14.1,0,0,1-1.1,4.5,3.4,3.4,0,0,1-3.4,2.5q-3.2,0-5.1-3.4l-.7-1.4a42.2,42.2,0,0,1-5.7,3.3l-.3-.5L143.3,53a50.2,50.2,0,0,0,6.7-3.9,38.5,38.5,0,0,1-1.1-7.2V40.8h-6.3v4.1l4.9-.8v1a8,8,0,0,0,0,1.9l-4.9.7v5.4q.1,3.3-2.9,3.3h-4l-.3-1.5-.3-1.4h2.8c1.1.1,1.7-.4,1.6-1.5v-4l-5,.8-.6-3.1,5.6-.7V40.8h-5.4V38h5.4V34.4h-1.7Zm22.5,2.3q-2.4-2.4-4.8-4.4l2-1.8q1.4,1,4.9,4.2Z" style="fill:#009fe3"/><path d="M171.4,46.6l-.7-4.3A49,49,0,0,0,175.9,30l3.1.8q-.6,1.9-1.9,5.2a1.4,1.4,0,0,1-.2.6V57h-2.9V42.6l-1.6,2.5Zm9.1,10.1V36.8h3.2V56.7ZM183.7,36q-1.5-2.3-3.2-4.4l2.5-1.6,3.4,4.2Zm4.5,20.7a3.2,3.2,0,0,0-.1-.7,15.7,15.7,0,0,0-.6-2.4h3.9q2.6.1,2.4-2.3V34.9h-6.1V32H197V52.2q.1,4.3-4,4.4Z" style="fill:#009fe3"/><path d="M210.3,55.5a13,13,0,0,0-2.5-1.8,57.6,57.6,0,0,0,6.3-7.7l2.7,1.6A67.7,67.7,0,0,1,210.3,55.5Zm-.6-10.8L211.2,32q9.6,0,20.7-1l1,2.8q-11.4.9-18.9,1l-.8,7.1h7.3V36.4h3.2v5.6h10.3v2.8H223.6v7.7q.2,4.2-3.9,4.1h-4q-.1-.8-.7-2.9h3.5a1.6,1.6,0,0,0,1.8-1.9v-7Zm23,10.6-2.5-2.9-4-4.8,2.4-1.6,4,4.5,2.7,3.1Z" style="fill:#009fe3"/><path d="M247.3,34.6V31.6H270v2.9h-9.3v6.6h11.4v3.1H260.7v8q.2,4.4-4.2,4.3h-5.1a12.5,12.5,0,0,1-.2-1.2,7.8,7.8,0,0,0-.3-1.8h4.3q2.4.1,2.2-2.3V44.2H245V41.1h12.2V34.6Z" style="fill:#009fe3"/><rect x="22.7" y="234.3" width="354.2" height="1.5" style="fill:#009fe3"/><path d="M29.6,212.4,23.5,200q3.3-3.7,2.9-13V130.3H51V95.1H25.1V79H61.6v51.2Q72.7,105,79.3,68.5L90.3,71q-2.5,11.7-4.9,22.8h35.7v15.4h-8.2q-3.3,45.1-14.8,67.9a71.2,71.2,0,0,0,23.8,22.2l-7,16q-16.4-14.8-24.2-25.9-8.6,12.4-27.9,27.8-4.5-9.3-7-15.4,18.5-10.5,27.9-25.3Q76,158.7,72.7,134a26.1,26.1,0,0,0-2.1,4.3q-2.1,5.6-3.3,8a8.1,8.1,0,0,1-.8-2.5q-3.3-6.8-4.9-9.9v11.7H37.4v43.2a36.8,36.8,0,0,0,4.5-3.1q13.1-8.6,19.7-12.3,0,8.7.8,17.3Q48.9,198.2,37,206.2A24.5,24.5,0,0,0,29.6,212.4ZM81.3,109.3l-1.2,3.1q3.7,33.3,11.1,51.2,8.6-19.7,11.1-54.3Z" style="fill:#009fe3"/><path d="M283.9,146.3a72.3,72.3,0,0,0-6.2-11.7,203.1,203.1,0,0,0,19.7-27.2l6.6,11.1A283.5,283.5,0,0,1,283.9,146.3Zm87.4,69.1q-28.7-5.6-43.9-16.7-15.6,11.1-43.9,18.5-2.5-7.4-5.3-15.4,23.8-3.7,38.2-11.1-10.7-11.1-18.5-30.9H290V145.7h69.4v14.8q-8.2,18.5-20.5,30.2,14.8,7.4,37.8,9.3-.8,1.9-3.3,9.3A53.2,53.2,0,0,1,371.3,215.4ZM279.7,100.6V85.8h43.5c-.3-1.6-.8-4.3-1.6-8s-1.5-5.8-2.1-7.4l12.3-1.9,3.7,17.3H375v14.8H344.6v37.7H333.9V100.6H320.4v37.7H310.1V100.6Zm66.5,59.3H309.7q7.4,14.2,17.6,22.8Q336.4,176,346.2,159.9Zm23-13q-9.4-14.8-19.3-28.4l6.6-10.5q6.2,7.4,18.1,24.1l2.1,3.1Z" style="fill:#009fe3"/></svg>