<svg id="Layer_1" data-name="Layer 1" xmlns="http://www.w3.org/2000/svg" viewBox="0 0 400 260"><title>Bookingvalue 3</title><rect x="17.6" y="27.6" width="139.6" height="1.5" style="fill:#009fe3"/><rect x="242.1" y="27.6" width="139.6" height="1.5" style="fill:#009fe3"/><rect x="17.6" y="235.8" width="364" height="2.72" style="fill:#009fe3"/><rect x="17.6" y="243.8" width="364" height="2.72" style="fill:#009fe3"/><path d="M60.6,187.7l-1.9-2.3a2.8,2.8,0,0,0,.8-2.2V173H57.2v-2.9h5.3v12.1l2.3-2.6a13.4,13.4,0,0,1,.2,1.4l.4,1.8a32.2,32.2,0,0,1-3.4,3.2l-.7.9Zm.9-19.9L60.4,166l-2.3-3.5,2.5-1.4q2.3,3,3.6,5Zm14.2,21V180h-3v8.7H69.9v-5.9a17.4,17.4,0,0,1-5.2,4.9l-.4-.6-1.2-1.6a17.8,17.8,0,0,0,6.3-5.5H65.8v-2.2h4.1v-2.3H64.7V173h5.2v-2.3H66v-2.2h3.9v-2.1H65.2V164h5.2a11.2,11.2,0,0,1-1.4-1.9l-.7-.9,2.9-.7.9,1.3a16.6,16.6,0,0,1,1.4,2l-.7.2H76l.9-1.4a13.6,13.6,0,0,1,1.3-2.1l3,.6-2,2.9h5.6v2.3H78.6v2.1h5.3V173h1.8v2.5H83.8V180H79a15.8,15.8,0,0,0,6.7,5.2l-1.1,1.3-.6.9a13.5,13.5,0,0,1-5.5-4.7v6Zm-3-22.4v2.1h3v-2.1Zm0,4.3V173h3v-2.3Zm0,4.8v2.3h3v-2.3Zm8.6-4.8H78.6V173h2.7Zm-2.7,4.8v2.3h2.7v-2.3Z" style="fill:#009fe3"/><path d="M92.3,188.7,90,186.4q2.9-3.6,2.7-12v-8.1h9.1v-5.7h3v1.8h11.6v2.3H104.9v1.6h13.4l-.6,4.9a12.1,12.1,0,0,0-2.9-.4l.4-2.1H95.6v5.6a35.2,35.2,0,0,1-.7,8.2A19.8,19.8,0,0,1,92.3,188.7Zm2.9-.9v-2.5h6.7v-7.5h2.9v7.5h3v-7.6h2.9v7.6h7.3v2.5Zm3.6-4L96,179.1l2.2-1.3,3,4.6Zm-2.1-10.3-.2-2,5.4-.4v-1.8h2.9v1.5l7.6-.5v2l-7.7.6h0q-.1,1.5,1.8,1.5H112q1.5,0,1.8-1.2a16.7,16.7,0,0,0,.4-1.8l1.4.4,1.4.4a8.3,8.3,0,0,1-.5,2q-.6,2.5-3.6,2.3h-7.4q-3.6,0-3.5-3.3v-.4Zm17,10.4-2.2-1.6q1.3-1.5,3.3-4.5l2.3,1.4A49.9,49.9,0,0,1,113.8,183.9Z" style="fill:#009fe3"/><path d="M146.7,177l-2.3,2.3-6.3-6.9,2.2-2Z" style="fill:#009fe3"/><path d="M169.1,165.4v-3h25.6v3h-5.2v7.7h6.3v3h-6.3v12.2h-3.3V176.2h-8.3a13.3,13.3,0,0,1-7.3,12.7l-2.5-2.6q6.7-3.2,6.4-10.1h-6.9v-3h6.9v-7.7Zm8.8,0v7.7h8.3v-7.7Z" style="fill:#009fe3"/><path d="M226.9,188.5a46.9,46.9,0,0,1-6-4.7,42.4,42.4,0,0,1-6.7,5l-.7-.9-1.3-1.9a24.2,24.2,0,0,0,6.7-4.8,23.8,23.8,0,0,1-2.9-8.3,17.3,17.3,0,0,1-1.5,2.3l-.2-.4-1.3-2q0,2.8-.2,8.7-.1,1.6-.1,2.3,0,3.9-3.6,3.9h-2.9q-.1-.7-.5-2.1l-.2-.7h2.3q2.1.1,2-2,.4-4.1.4-8.1h-3.8q-.2,9.1-3.9,13.6l-2.2-2.2q3.2-4.2,3.3-13,0-.9.1-2.7v-2.6h-2.9v-2.8h6.1a29.6,29.6,0,0,0-1.3-4.3l3.3-.5.7,2.8a20.1,20.1,0,0,1,.6,2h4.1v2.8h-7.6v4.1h6.4a38.2,38.2,0,0,0,5-11.7l3.2.4a22.4,22.4,0,0,1-1.5,4.6h9.1v2.9h-2q-.8,8.3-3.9,12.8a15.6,15.6,0,0,0,6.1,4.3l-1.2,1.8Zm-6-9.8a26.9,26.9,0,0,0,2.8-10.2h-5.4l-.2.6A26.8,26.8,0,0,0,221,178.6Z" style="fill:#009fe3"/><path d="M256.9,177l-2.3,2.3-6.3-6.9,2.2-2Z" style="fill:#009fe3"/><path d="M304.2,188.6a33.2,33.2,0,0,1-10-4,40.8,40.8,0,0,1-10.1,4.2l-1.6-2.8v-.2a27.6,27.6,0,0,0,9.3-3.3,25.3,25.3,0,0,1-4.9-7.4l1.8-.9H287a39.2,39.2,0,0,1-8,13.2l-1.5-3q5.9-6.6,8-16.9h-7.2v-2.9H286l.4-2.1c.1-.8.2-1.4.2-1.9h3.3q-.1.6-.2,1.8l-.4,2.1h16.4v2.9h-17q-.2,1.2-.8,3.3a1.9,1.9,0,0,0-.1.6h15.1v2.9a24,24,0,0,1-6,8.3,29.9,29.9,0,0,0,8.9,2.8A23.2,23.2,0,0,0,304.2,188.6Zm-4.8-14.4h-9.8a19.1,19.1,0,0,0,4.7,6.6A17.2,17.2,0,0,0,299.4,174.2Z" style="fill:#009fe3"/><path d="M311.7,165.9v-2.2h7a27.5,27.5,0,0,0-2-2.6l3.3-.6.9,1.2,1.5,2h4.6l2.5-3.2,3.4.6-2.1,2.6H338v2.2H326.4v1.6h10.3v2.2H326.4v1.6h12.3v2.2h-6.6l2.6.8-.6.8-1.1,1.3h5.9v2.1H310.8v-2.1h5.9l-.9-1.1-.8-1.2,2.2-.7H311v-2.2h12.2v-1.6H313v-2.2h10.2v-1.6Zm2,22.9v-8.1h22.2v8.1h-3.2v-1.2H316.8v1.2Zm3-6v2.6h15.9v-2.6Zm1.3-9.1,1.2,1.4,1.1,1.5h2.9v-2.9Zm11.5,2.9,2-2.9h-5.2v2.9Z" style="fill:#009fe3"/><path d="M172.4,21.7a5.1,5.1,0,0,0-.2-1.1,6.7,6.7,0,0,0-.2-1.1q3.6-.2,9.5-.9l.5,2.3-1.4.2-2,.2v3.2h5.1q-.2-5.1-.2-6.7H186q0,1.9.2,6.8h7.9v2.3h-7.7v.8q.2,2.6.5,4.3a24.6,24.6,0,0,0,3.9-4.5l2.1,1.6a41.5,41.5,0,0,1-5.2,5.5l.4.7.4.8q.8,1.5,1.9,1.5t1-1,.6-2.7v-.5l2.2,1a11.6,11.6,0,0,1-.9,3.8,2.8,2.8,0,0,1-2.8,2.1,4.8,4.8,0,0,1-4.2-2.8l-.6-1.1a34.9,34.9,0,0,1-4.7,2.7l-.3-.4-1.3-1.6a41.5,41.5,0,0,0,5.5-3.2,31.9,31.9,0,0,1-.9-6v-.9h-5.2v3.4l4-.7v.8a6.7,6.7,0,0,0,0,1.6l-4,.6v4.5q.1,2.7-2.4,2.7h-3.3l-.3-1.2-.3-1.1h2.3c.9.1,1.4-.3,1.3-1.2V32.9l-4.1.7-.5-2.5,4.6-.6V26.7h-4.5V24.4H176V21.4h-1.4Zm18.7,1.9-3.9-3.7,1.7-1.5,4,3.5Z" style="fill:#009fe3"/><path d="M200.8,31.5l-.6-3.6a40.5,40.5,0,0,0,4.3-10.1l2.5.7q-.5,1.6-1.6,4.3l-.2.5V40.1h-2.4V28.2l-1.3,2.1Zm7.5,8.3V23.4h2.6V39.8ZM211,22.8q-1.2-1.9-2.6-3.7l2.1-1.3,2.8,3.5Zm3.8,17.2a2.6,2.6,0,0,0-.1-.6,13,13,0,0,0-.5-2h3.2q2.2.1,2-1.9V21.8h-5.1V19.4h7.7V36.2q.1,3.6-3.3,3.7Z" style="fill:#009fe3"/><path d="M168.5,48.4a10,10,0,1,1-12,7.5,10,10,0,0,1,12-7.5" style="fill:#009fe3"/><path d="M242.8,55.9a10,10,0,1,1-12-7.5,10,10,0,0,1,12,7.5" style="fill:#009fe3"/><path d="M249,78.4a17.4,17.4,0,0,0-5.9-5.7l-.6-.2-.9-.3L226,69.9l-1.2-.4a25.5,25.5,0,0,1-9-3.5,22.3,22.3,0,0,1-6.3-5.8,23.9,23.9,0,0,1-4.1-10.2,3.4,3.4,0,0,0-5.7-1.9,3.4,3.4,0,0,0-5.7,1.9,23.8,23.8,0,0,1-4.3,10.4,23.5,23.5,0,0,1-9.9,7.5,26,26,0,0,1-3.9,1.3l-1.1.2h-.3l-1.2.4-15.5,2.3-.9.3-.6.2a17.4,17.4,0,0,0-5.9,5.7c-2.7,4-5.2,10.4-5.2,19.8a70.4,70.4,0,0,0,1.6,14.2,3.4,3.4,0,0,0,3.3,2.7h.7a3.4,3.4,0,0,0,2.7-4,63.8,63.8,0,0,1-1.4-12.8c0-8,2-12.8,3.8-15.7l3.5,23.7v36.1a5.5,5.5,0,0,0,11,0V108.1l3-.4L183.4,144a5.5,5.5,0,1,0,10.6-3l-11.3-40.2L179,75.5a33.7,33.7,0,0,0,7.5-3.3,28.8,28.8,0,0,0,13.1-16.7,29.4,29.4,0,0,0,4.6,9.1,30.3,30.3,0,0,0,12.7,9.7l3.4,1.2-3.7,25.4L205.2,141a5.5,5.5,0,1,0,10.6,3L226,107.7l3,.4v34.3a5.5,5.5,0,0,0,11,0V106.3l3.5-23.7.3.5c1.8,2.9,3.5,7.6,3.5,15.2a63.8,63.8,0,0,1-1.4,12.8,3.4,3.4,0,0,0,2.7,4h.7a3.4,3.4,0,0,0,3.3-2.7,71,71,0,0,0,1.6-14.2c0-9.5-2.5-15.9-5.2-19.8Z" style="fill:#009fe3"/><path d="M57.7,204.9l-.4-.6-1.1-1.6a33.1,33.1,0,0,0,10.4-6.2l3.3.4L67.4,199H78.6v2.6q-7.9,6.6-22.3,9.8l-.3-.6a8.8,8.8,0,0,0-.7-1.8,68.2,68.2,0,0,0,9.9-2.7l-3.5-3.1,2.1-1.3,1.4,1.1,2.8,2.1-.3.2a34.4,34.4,0,0,0,7-3.9H64.3A45,45,0,0,1,57.7,204.9Zm.4,11.6a22.6,22.6,0,0,0-1.5-2.5q8.3-2.6,13-6.9l3.2.5-2.1,1.8h9.1V212q-7.6,8.1-23.4,10.4a13.4,13.4,0,0,0-1-2.5,51.9,51.9,0,0,0,11.3-2.6l-1.6-1.5-1.6-1.5,2.4-1.2,1.8,1.5,1.7,1.5a29.4,29.4,0,0,0,6.6-4.3H67.6A44.4,44.4,0,0,1,58.2,216.5Z" style="fill:#009fe3"/><path d="M87.7,208.7v-2.8H113v2.8h-8v8.6q-.1,1.9,1.7,1.8h1.2a1.9,1.9,0,0,0,2.1-1.8q.3-2.6.4-3.9l1.9.8,1,.3a11.4,11.4,0,0,0-.2,1.3,24.1,24.1,0,0,1-.4,2.7q-.4,3.2-4.5,3.1h-2.5q-3.8,0-3.8-3.5v-9.3H97.5a4.7,4.7,0,0,1-.1.9v.6q.3,8.4-8,12.2a19.8,19.8,0,0,0-1.9-2.6q7.3-3.1,7-9.9v-1.3ZM90,201v-2.9h20.6V201Z" style="fill:#009fe3"/><path d="M120.5,212.7l-1.1-3.6a43.8,43.8,0,0,0,6.8-12.2l3,1q-1.4,3.3-3,6.3v18.1h-2.8V208.8l-1.4,1.9Zm8,2.5a15.6,15.6,0,0,0-1.7-2.7,49.6,49.6,0,0,0,5.9-3.3V197.1h3.1v10a43.1,43.1,0,0,0,6.8-6.8l2.4,2a53.7,53.7,0,0,1-9.1,8.4V217q-.1,2,1.9,1.9h2q2.1.1,2.4-1.7l.5-4.4,1.5.5,1.4.5a46.8,46.8,0,0,1-.7,4.8q-.4,3-4.7,2.9h-3.2q-4.4.2-4.2-4.2v-4.7Z" style="fill:#009fe3"/><path d="M160,220.1l-1.4-1.4-1.5-1.5a14.6,14.6,0,0,1-4,5.3l-.6-1.1-.7-1.1q4.7-3.2,4.3-10.7v-7h2v7a37.7,37.7,0,0,1-.3,5.3l4,3.5Zm-7.2-5.3V198h8.5v16.8h-1.8V200.6h-4.8v14.3Zm8.9,6.6-.4-2.5h.2l1.3-.2V208.7h2.1v9.9l1.6-.2V207h2.3v3.8h1.9V213h-1.9v4.8l2.5-.4v2.5Zm.4-15.4v-2.4H171v-7h2.4v7h4.5v2.4h-4.4a55.7,55.7,0,0,0,1.1,11.8q.4,1.6,1,1.5c.3.1.5-.2.5-.8a11.2,11.2,0,0,1,.1-1.2l.3-2.9,1.6.8-.3,3.1a11.4,11.4,0,0,0-.1,1.2q-.4,2.6-2.4,2.6t-3-3.3a59.5,59.5,0,0,1-1.2-12.8Zm1.1-4.8v-2.4h6.5v2.4Zm12.5,1.3-2.1-3.4,1.7-1.1a14.9,14.9,0,0,1,1.3,1.9l1,1.4Z" style="fill:#009fe3"/><path d="M207.1,216l-2.9-1,1.7-4.8h-7v7.3q.2,4.5-4.1,4.4h-4.7a16.8,16.8,0,0,0-.4-1.9,3.6,3.6,0,0,0-.2-.9h4q2.6.1,2.4-2.5v-6.5H184.7v-2.7h11.6l-6.5-4.4,1.9-1.9,5.4,3.5,6.1-4.1H186.8V198h20.5v3.2l-7.9,5.1.2.2-1,1h10.6v2.7Z" style="fill:#009fe3"/><path d="M217.6,201.4a5.9,5.9,0,0,0-.2-1.3,7.7,7.7,0,0,0-.2-1.3q4.1-.2,10.8-1.1l.5,2.6-1.6.2-2.3.2v3.6h5.8q-.2-5.8-.2-7.7h2.9q0,2.1.2,7.7h9V207h-8.8v1q.2,3,.5,4.9a28.1,28.1,0,0,0,4.5-5.1l2.4,1.8a47.4,47.4,0,0,1-6,6.3,2.3,2.3,0,0,1,.4.8l.4.9q1,1.7,2.1,1.7c.6,0,1-.4,1.2-1.2s.4-1.6.6-3.1v-.5l2.5,1.2a13.3,13.3,0,0,1-1.1,4.3,3.2,3.2,0,0,1-3.2,2.4q-3,0-4.8-3.2l-.6-1.3a40,40,0,0,1-5.4,3.1l-.3-.4-1.5-1.8a47.5,47.5,0,0,0,6.3-3.6,36.4,36.4,0,0,1-1.1-6.9V207h-6v3.9l4.6-.8v1a7.5,7.5,0,0,0,0,1.8l-4.6.6v5.1q.1,3.1-2.8,3.1h-3.8l-.3-1.4-.3-1.3h2.7c1.1.1,1.6-.4,1.5-1.4v-3.8l-4.7.8-.5-2.9,5.3-.6V207h-5.1v-2.7h5.1V201h-1.6Zm21.3,2.1q-2.2-2.3-4.5-4.2l1.9-1.7,4.6,4Z" style="fill:#009fe3"/><path d="M249.4,212.5l-.6-4.1a46.3,46.3,0,0,0,4.9-11.6l2.9.8q-.5,1.8-1.8,4.9a1.3,1.3,0,0,1-.2.5v19.3h-2.8V208.8l-1.5,2.4Zm8.6,9.5V203.3h3v18.8Zm3.1-19.5q-1.4-2.1-3-4.2l2.4-1.5,3.2,4Zm4.3,19.6a3,3,0,0,0-.1-.6,14.8,14.8,0,0,0-.5-2.3h3.6q2.5.1,2.3-2.1V201.5h-5.8v-2.8h8.8v19.2q.1,4.1-3.8,4.2Z" style="fill:#009fe3"/><path d="M283.4,222.3l-.5-.6-1.6-1.8q8.9-4.6,8.9-14.7h-8v-2.9h8.3q0-.9.1-2.8a24,24,0,0,1,.1-2.7h3.1q0,1.8-.2,5.1v.3h12q-.3,8.3-.6,14t-5.4,5.3H294a18.7,18.7,0,0,0-.5-2.6v-.4h5q3.4.2,3.3-3.8.2-2.3.3-8c.1-.9.1-1.5.1-1.8h-8.9Q293.2,216.9,283.4,222.3Z" style="fill:#009fe3"/><path d="M316.2,215.9v-7.4h20.4v7.4h-8.8v1.3h9.6v1.5h-9.6v1.2h11.6v1.7H313.4v-1.7H325v-1.2h-9.6v-1.5H325v-1.3Zm-2.7-8.6v-1.6h25.7v1.6Zm2.5-2.8v-6.9h20.7v6.9Zm2.8-5.4v1.3h15.1v-1.3Zm0,2.6v1.3h15.1v-1.3Zm.1,8.3v1.5H325V210Zm0,2.9v1.5H325v-1.5Zm15-2.9h-6.1v1.5h6.1Zm-6.1,2.9v1.5h6.1v-1.5Z" style="fill:#009fe3"/><path d="M305.1,88.7a5.4,5.4,0,0,0-6.5,3.8l-2.3,8.6-6.1,6.1a14,14,0,0,0-3.9,7.9l-1.2,9,3.2.4,1.2-9a10.8,10.8,0,0,1,3-6.1l6.7-6.7,2.5-9.5a2,2,0,0,1,2.5-1.5h0l.7.2a2.1,2.1,0,0,1,1.5,2.5l-3.7,13.8,3.2.8,3.7-13.8a5.4,5.4,0,0,0-3.8-6.5l-.7-.2Z" style="fill:#009fe3"/><path d="M308.7,71.3h0Zm-.3,0h0a5.4,5.4,0,0,0-4.2,5.8h0l1.7,14.1a1.6,1.6,0,0,0,3.2-.4l-1.7-14.1a2,2,0,0,1,1.6-2.3h0a2,2,0,0,1,2.5,1.7l3.1,19.7a23.1,23.1,0,0,1-2.5,14.5l-9.5,17.8h0a1.6,1.6,0,1,0,2.9,1.5L315,112a26.4,26.4,0,0,0,2.8-16.6l-3.1-19.7a5.4,5.4,0,0,0-6.3-4.4Z" style="fill:#009fe3"/><path d="M283.5,121.9a1.6,1.6,0,0,0-1.5,1.2l-3,11h0a1.6,1.6,0,0,0,1.2,2l25.2,6.8a1.6,1.6,0,0,0,2-1.2l3-11a1.6,1.6,0,0,0-1.2-2L284,121.9h-.5Zm1.2,3.6,22,5.9-2.1,7.9-22-5.9Z" style="fill:#009fe3"/><path d="M94.1,88.7l-.7.2a5.4,5.4,0,0,0-3.8,6.5l3.7,13.8,3.2-.8L92.8,94.6a2.1,2.1,0,0,1,1.5-2.5l.7-.2h0a2,2,0,0,1,2.5,1.5l2.5,9.5,6.7,6.7a10.7,10.7,0,0,1,3,6.1l1.2,9,3.2-.4-1.2-9a14,14,0,0,0-3.9-7.9l-6.1-6.1-2.3-8.6a5.4,5.4,0,0,0-6.5-3.8Z" style="fill:#009fe3"/><path d="M90.6,71.3h0Zm.3,0a5.4,5.4,0,0,0-6.3,4.4L81.4,95.4A26.4,26.4,0,0,0,84.2,112l9.5,17.8h0a1.6,1.6,0,0,0,3-.3,1.6,1.6,0,0,0-.2-1.3l-9.5-17.8a23.1,23.1,0,0,1-2.5-14.5l3.1-19.7a2,2,0,0,1,2.5-1.7h0a2.1,2.1,0,0,1,1.6,2.3L90.2,90.8h0a1.6,1.6,0,0,0,3.2.4l1.7-14.1a5.3,5.3,0,0,0-4.2-5.8h0Z" style="fill:#009fe3"/><path d="M115.7,121.9h-.4l-25.2,6.8h0a1.6,1.6,0,0,0-1.2,2l3,11h0a1.6,1.6,0,0,0,2,1.2l25.2-6.8h0a1.6,1.6,0,0,0,1.2-2l-3-11h0a1.6,1.6,0,0,0-1.6-1.2Zm-1.2,3.6,2.1,7.9-22,5.9-2.1-7.9Z" style="fill:#009fe3"/></svg>