<svg xmlns="http://www.w3.org/2000/svg" width="1500" height="192" viewBox="0 0 1500 191.5"><style>.a{fill:#FFF;}.b{fill:#009FE3;}</style><path d="M423.6 24.9c0-8.8 7.1-16 15.9-16 8.8 0 16 7.2 16 16 0 8.8-7.2 16-16 16C430.7 40.9 423.6 33.8 423.6 24.9z" class="a"/><path d="M675.2 131.3c0-8.8 7.1-16 15.9-16 8.8 0 16 7.2 16 16 0 8.8-7.2 16-16 16C682.4 147.3 675.2 140.1 675.2 131.3z" class="b"/><path d="M161.8 48.1c-29.1 0-50.1 20.9-50.1 49.8 0 28.8 21.1 49.8 50.1 49.8 29.2 0 50.3-20.9 50.3-49.8C212.2 69 191 48.1 161.8 48.1zM161.8 124.4c-13.7 0-23.3-10.9-23.3-26.5 0-15.6 9.5-26.5 23.3-26.5 13.8 0 23.5 10.9 23.5 26.5C185.3 113.7 175.9 124.4 161.8 124.4z" class="a"/><path d="M392.7 100.4c-1.1-2.1-2.4-3.9-3.8-5.4l-0.9-0.9 0.9-0.9c1.3-1.4 2.7-3.1 4-5l25.6-38.1h-31.1l-19.3 29.8c-1.1 1.6-3.3 2.4-6.6 2.4h-4.4V25.9c0-11.3-7-12.8-14.6-12.8h-13l0 133.1h27.6v-39.9h2.6c3.1 0 5.3 0.4 6.3 2.1l15.2 28.7c4.2 7.8 8.5 9.1 16.5 9.1h21.1l-15.7-26.1L392.7 100.4z" class="a"/><path d="M526.6 47.9c-14 0-23 6.2-28 11.5l-1.7 1.7 -0.6-2.3c-1.5-5.6-6.4-8.8-13.9-8.8h-12.4l0.1 96.1h27.4v-44.3c0-4.3 0.6-8.1 1.7-11.5 3-10.4 11.6-16.8 22.2-16.8 8.6 0 11.9 4.5 11.9 16.2v41.9c0 10 4.6 14.6 14.6 14.6h13l0-61.1C560.9 60.7 549 47.9 526.6 47.9z" class="a"/><path d="M439.9 50.1h-13l0.1 74.3h0v21.8h13.9c0.2 0 0.3 0 0.5 0l6.5 0h6.4v0h0l0.1-81.5C454.3 54.8 449.6 50.1 439.9 50.1z" class="a"/><path d="M269.5 48.1c-29.1 0-50.2 20.9-50.2 49.8 0 28.8 21.1 49.8 50.2 49.8 29.1 0 50.4-20.9 50.4-49.8C319.8 69 298.6 48.1 269.5 48.1zM269.5 124.4c-13.7 0-23.3-10.9-23.3-26.5 0-15.6 9.6-26.5 23.3-26.5 13.8 0 23.5 10.9 23.5 26.5C292.9 113.7 283.5 124.4 269.5 124.4z" class="a"/><path d="M856.7 48.1c-29.1 0-50.2 20.9-50.2 49.8 0 28.8 21.1 49.8 50.2 49.8 29.1 0 50.4-20.9 50.4-49.8C907.1 69 885.9 48.1 856.7 48.1zM856.7 124.4c-13.7 0-23.3-10.9-23.3-26.5 0-15.6 9.6-26.5 23.3-26.5 13.8 0 23.5 10.9 23.5 26.5C880.2 113.7 870.7 124.4 856.7 124.4z" class="b"/><path d="M651.8 49.8c-5.2 0-9.2 2.1-11.2 5.9l-0.8 1.5 -1.3-1.1c-4.4-3.8-12.3-8.4-25.2-8.4 -25.6 0-42.9 19.2-42.9 47.9 0 28.6 17.8 48.6 43.4 48.6 8.7 0 15.6-2 21.1-6.2l2.1-1.6v2.7c0 12.8-8.3 19.9-23.4 19.9 -7.3 0-14-1.8-18.4-3.4 -5.8-1.8-9.2-0.3-11.6 5.5l-2.2 5.4 -3.1 7.9 1.9 1c9.6 5.1 22.2 8.2 33.5 8.2 23.3 0 50.6-11.9 50.6-45.6l0.1-88.1H651.8zM618.7 120.1c-15 0-20.3-13.1-20.3-25.3 0-5.4 1.4-23 18.9-23 8.7 0 20.3 2.5 20.3 23.9C637.5 115.9 627.3 120.1 618.7 120.1z" class="a"/><path d="M88.3 78l-4-2.3 3.5-3c4.1-3.5 11-11.4 11-25.1 0-20.9-16.2-34.4-41.3-34.4H28.7v0h-3.3c-7.4 0.3-13.4 6.3-13.5 13.8v6.5 99V145.7h13.2c0 0 0 0 0.1 0h32.8c27.9 0 45.9-15.2 45.9-38.7C103.9 94.3 98.1 83.5 88.3 78zM37.5 51.3L37.5 51.3v-7c0-6.1 2.6-9.1 8.3-9.4h11.4c9.8 0 15.6 5.9 15.6 15.7 0 7.5-4 16.2-15.3 16.2H37.5V51.3zM59.8 123.3l-22.3 0v-19.7 -7c0-5.7 2.2-8.7 7.1-9.3H59.8c10.9 0 17.9 6.9 17.9 17.9C77.7 116.5 70.8 123.3 59.8 123.3z" class="a"/><path d="M1029.5 48.2c-11.4 0-22.4 5.3-29.4 14.3l-2 2.5 -1.6-2.8c-5.1-9.3-13.8-14-26-14 -12.7 0-21.3 7.1-25.2 11.3l-2.6 2.8 -1-3.7c-1.4-5.3-6.2-8.3-13.4-8.3h-11.5l-0.1 95.7h26.2v-42.3c0-3.7 0.5-7.4 1.4-11.2 2.5-10.2 9.4-21.2 20.9-20.1 7.1 0.7 10.6 6.2 10.6 16.8v56.8h26.3v-42.3c0-4.6 0.4-8.1 1.5-11.6 2.1-9.7 9.3-19.7 20.4-19.7 8.1 0 11 4.6 11 16.8v42.8c0 9.7 4.3 14 14 14h12.3l0-61.1C1061.4 60.6 1050.6 48.2 1029.5 48.2z" class="b"/><path d="M791.4 112.9c-0.1 0.1-11.3 11.9-26.2 11.9 -13.5 0-27.2-8.3-27.2-26.8 0-16 10.6-27.1 25.7-27.1 4.9 0 10.5 1.8 11.4 4.7l0.1 0.5c2 6.7 8.1 7.1 9.3 7.1l14.3 0V70.7c0-16.5-21-22.5-35.2-22.5 -30.3 0-52.2 21.1-52.2 50.1 0 29 21.7 50 51.7 50 26 0 40.1-17.1 40.2-17.2l0.8-0.9 -11.3-18.8L791.4 112.9z" class="b"/><path d="M1194.9 146.6c0 2-1.6 4.2-3.6 4.7l-45.7 13.1c-2 0.6-4.5-0.4-5.7-2.1l-4.7-6.9c-1.1-1.7-0.5-3.5 1.5-4 0 0 42.2-10.6 58.1-15.7V146.6zM1190.8 115.2c0 2.1-1.7 4-3.7 4.4 0 0-33.1 5.7-44.9 8.8l-5.2-9.2c-1-1.8-0.7-4.4 0.7-5.9 0 0 16.2-17 24.8-31.4 -11.7 1.8-18.1 3-19.3 3.6l-5.6-8.8c-1.1-1.7-1-4.5 0.1-6.2 0 0 24.2-35.1 31-59.3l9.2 5c1.8 1 2.6 3.3 1.9 5.2 0 0-12.1 30.8-25.1 47.6l10.1-0.8c2-0.2 4.5-1.8 5.4-3.6 0 0 4.6-9 7.5-16.5l8.5 5c1.8 1 2.5 3.4 1.6 5.2 0 0-18.9 40.4-31.1 52.2l0 0c0.2 0.2 2 0.1 4-0.2l26.1-4.2c2-0.3 3.7 1.1 3.7 3.1V115.2zM1229.6 144.9c1.4 1.5 1.3 3.7-0.3 5 0 0-22.9 18.7-43.5 26.4 -4.2-5.2-8.9-12.3-8.9-12.3s23.8-8.6 46.1-25.8L1229.6 144.9zM1295.4 56.9c0 2-1.7 3.7-3.7 3.7h-6.4c-2.1 0-3.7-1.7-3.7-3.7v-6.6c0-2-1.7-3.7-3.7-3.7h-64.7c-2 0-3.7 1.7-3.7 3.7v6.6c0 2-1.7 3.7-3.7 3.7h-7c-2 0-3.7-1.7-3.7-3.7v-20.3c0-2.1 1.7-3.7 3.7-3.7h36.4c2 0 2.4-1.1 0.9-2.4 0 0-7.6-6.5-14.1-9.3l5.4-6.7c1.3-1.6 3.8-2.1 5.6-1.1 0 0 14.9 8.2 19.5 15.4l-1.9 1.7c-1.5 1.4-1.1 2.5 0.9 2.5h40.4c2.1 0 3.7 1.7 3.7 3.7V56.9zM1299.3 128.4c0 2-1.7 3.7-3.7 3.7h-95.6c-2.1 0-3.7-1.7-3.7-3.7v-6.3c0-2 1.7-3.7 3.7-3.7h5.2c2 0 3.7-1.7 3.7-3.7V67.8c0-2 1.7-3.9 3.7-4 0 0 25.8-1.5 57.3-12.4l6.5 8.7c1.2 1.6 0.7 3.6-1.2 4.3 0 0-27.6 10.6-52 13v3.1c0 2.1 1.7 3.7 3.7 3.7h53.7c2 0 3.7 1.7 3.7 3.7v6.4c0 2.1-1.7 3.7-3.7 3.7h-16c-2 0-3.7 1.7-3.7 3.7v12.8c0 2.1 1.7 3.7 3.7 3.7h31c2.1 0 3.7 1.7 3.7 3.7V128.4zM1242.8 118.3c2 0 3.7-1.7 3.7-3.7v-12.8c0-2.1-1.7-3.7-3.7-3.7h-15.8c-2 0-3.7 1.7-3.7 3.7v12.8c0 2.1 1.7 3.7 3.7 3.7H1242.8zM1303 164.9l-6.4 8.3c-1.9 2-3.5 1.9-5.1 0.6 0 0-15.9-15-40.3-25.8l7.1-10.2C1277.2 144.5 1292.9 154.4 1303 164.9z" class="a"/><path d="M1417.8 94.5c12.6-8.1 27.5-23.6 27.5-23.6 1.4-1.5 2.6-4.4 2.6-6.4v-5c0-2-1.7-3.7-3.7-3.7h-61.4c1.8-3.5 2.3-5.2 2.3-5.2 0.6-2-0.5-4.2-2.4-4.9l-8.6-3.4c-16.7 27.2-40.7 43-40.7 43 -1.6 1.2-1.6 3.2 0 4.5l9.5 6.9c12.7-9 19.1-15.2 25.1-20.6 5.6 6.1 11.6 11.5 19.6 17.2 -19.1 8.4-69.2 17.4-69.2 17.4 -2 0.3-2.9 2.1-1.9 3.9l5.5 10.3c15.1-2 27.5-5.4 27.5-5.4 1.6-0.3 17.7-4.6 17.9-4.6 16.8-5 21.2-4.8 35.6-11.7 14.3 8 75.4 20 75.4 20 2 0.4 4.3-0.8 5.1-2.7l4.8-11.3C1459.2 105.6 1437.8 102.3 1417.8 94.5zM1384.4 72c-1.5-1.4-1-2.6 1-2.6h41c-5.9 6.1-13.7 11.8-23.4 17.1C1396.1 83.2 1384.4 72 1384.4 72z" class="a"/><path d="M1332.1 64.8h7c2 0 3.7-1.7 3.7-3.7v-16.2c0-2 1.7-3.7 3.7-3.7h110.4c2 0 3.7 1.7 3.7 3.7v16.2c0 2.1 1.7 3.7 3.7 3.7h7c2 0 3.7-1.7 3.7-3.7V31.1c0-2-1.7-3.7-3.7-3.7h-58.4c-2.1 0-3.7-1.7-3.7-3.7v-9.6c0-2.1-1.7-3.7-3.7-3.7h-7.3c-2.1 0-3.7 1.7-3.7 3.7v9.6c0 2.1-1.7 3.7-3.7 3.7h-58.6c-2 0-3.7 1.7-3.7 3.7v29.9C1328.3 63.1 1330 64.8 1332.1 64.8z" class="a"/><path d="M1355.6 120.4l0.2 52.4c0 2 1.7 3.7 3.7 3.7h7c2.1 0 3.7-1.7 3.7-3.7v-3.7c0-2 1.7-3.7 3.7-3.7h55.9c2.1 0 3.7 1.7 3.7 3.7v3.2c0 2 1.7 3.7 3.7 3.7h7c2 0 3.7-1.7 3.7-3.7v-52.5c0-2.1-1.7-3.7-3.7-3.7l-83.5 0.3C1356 116.1 1355.6 118.2 1355.6 120.4zM1370.2 133.3c0-2.1 1.7-3.7 3.7-3.7h55.9c2.1 0 3.7 1.7 3.7 3.7v14.5c0 2.1-1.7 3.7-3.7 3.7h-55.9c-2.1 0-3.7-1.7-3.7-3.7V133.3z" class="a"/></svg>